<svg width="75" height="75" viewBox="0 0 75 75" fill="none" xmlns="http://www.w3.org/2000/svg">
<g id="Featured icon">
<rect x="0.886414" y="0.886475" width="73.7729" height="73.7729" rx="15.3694" fill="url(#paint0_linear_141_3437)"/>
<g id="&#240;&#159;&#166;&#134; illustration &#34;User Group&#34;">
<g id="Group">
<path id="Vector" opacity="0.18" d="M8.30663 56.0693C2.65296 51.9745 4.05593 42.1954 4.42395 39.0456C4.62805 37.3116 5.05392 35.5775 5.93138 34.0926C8.4593 29.8114 13.843 28.7298 17.8221 25.9255C22.2496 22.8222 25.0684 17.4691 29.8333 14.9781C32.4561 13.6073 35.4436 13.2361 38.3701 13.0721C43.683 12.7732 49.4974 13.2762 53.446 17.0271C56.3017 19.7399 57.7256 23.7431 60.2632 26.7853C62.5002 29.4691 65.5215 31.3092 67.863 33.8933C71.3407 37.7278 73.1181 43.5952 71.2378 48.5096C69.491 53.0624 66.8168 56.05 65.4299 56.5C60.9783 57.9463 51.2491 58.1215 46.5934 58.4525C41.6035 58.8061 37.1117 58.0315 32.1121 58.0476C24.3982 58.0733 13.8735 58.4992 8.31306 56.0628" fill="#68E1FD"/>
<path id="Vector_2" d="M51.5432 41.5414C51.5432 41.5414 52.2664 43.3622 48.4689 44.4903C44.6714 45.6185 42.587 50.0813 42.669 53.8354V56.2557C42.669 56.2557 54.4777 60.5948 64.4913 56.59C64.4913 56.59 65.4556 46.451 58.6095 44.0725C58.6095 44.0725 57.1904 43.6547 57.6067 41.9833C57.6067 41.9833 60.8626 40.1464 60.2776 35.3059C59.6926 30.4654 57.8333 28.9628 55.9112 28.8536C48.1491 28.4116 48.1217 38.5924 51.5432 41.5414Z" fill="#F7AF87"/>
<path id="Vector_3" d="M65.4299 56.5064C65.4299 56.5064 65.5745 49.4353 64.3997 47.0343C63.4082 45.0046 60.8497 44.4839 58.6898 43.8202C58.5698 43.7755 58.4414 43.7579 58.3138 43.7688C58.1559 43.8093 58.0103 43.8876 57.8895 43.997C56.7153 44.8806 55.2571 45.3017 53.7926 45.1799C52.3281 45.0581 50.9595 44.402 49.9474 43.3365C47.3568 44.1255 45.3303 44.1095 43.9707 46.4526C42.6111 48.7957 41.9377 53.371 42.1933 56.0677C42.1868 56.0693 53.859 60.7989 65.4299 56.5064Z" fill="#68E1FD"/>
<path id="Vector_4" d="M44.9301 46.5185C44.9301 46.5185 46.8907 44.508 47.6798 44.4984C48.4689 44.4887 53.3045 58.2051 53.3045 58.2051L46.0872 57.8612L44.9301 46.5185Z" fill="url(#paint1_linear_141_3437)"/>
<path id="Vector_5" d="M49.1583 29.6025C49.6099 28.1015 50.7317 26.7097 52.26 26.361C52.7164 26.2565 53.1873 26.2485 53.6469 26.1601C53.9265 26.1055 54.1997 26.0235 54.4761 25.9544C55.6094 25.6555 56.8022 25.6666 57.9297 25.9866C59.0617 26.3147 60.032 27.0504 60.6537 28.0516C61.2194 29.0159 61.3785 30.1665 61.2965 31.2786C61.2146 32.3907 60.5701 34.361 60.2664 35.4329C59.7264 34.7258 60.0864 32.7202 59.3311 32.2477C58.7943 31.9118 58.1033 32.0645 57.4781 32.1706C56.0283 32.4197 54.5425 32.365 53.115 32.0098C52.4384 31.8395 51.7441 31.6016 51.0611 31.7399C50.4681 31.8588 50.2576 32.3136 49.9362 32.8182C49.708 33.1669 49.5714 34.9074 49.3769 35.2465C48.9237 35.0858 48.8353 32.328 48.8401 31.9311C48.8366 31.1438 48.9437 30.3599 49.1583 29.6025Z" fill="#404040"/>
<path id="Vector_6" d="M60.6875 34.97C60.7594 34.9016 60.8445 34.8485 60.9376 34.814C61.0307 34.7795 61.1299 34.7642 61.229 34.7692C61.3048 34.7856 61.3759 34.8188 61.4371 34.8663C61.4983 34.9139 61.548 34.9746 61.5826 35.044C61.651 35.1832 61.6883 35.3357 61.6919 35.4907C61.7287 36.1106 61.5262 36.7209 61.1262 37.1958C60.906 37.453 60.5782 37.678 60.2487 37.5992C60.1827 37.5875 60.1221 37.5555 60.0752 37.5076C60.0392 37.4626 60.0129 37.4106 59.998 37.3549C59.8698 36.8687 59.861 36.3587 59.9723 35.8684C60.0093 35.6547 60.0302 35.4457 60.2102 35.3075C60.3596 35.1918 60.5332 35.0858 60.6875 34.97Z" fill="#F7AF87"/>
<path id="Vector_7" d="M27.8245 42.3256C28.0784 42.2838 28.3548 42.2276 28.5204 42.0315C28.6413 41.8573 28.7099 41.652 28.718 41.4401C29.0282 39.1082 29.8912 32.238 27.5931 28.3007C27.2717 27.7382 26.4424 27.6081 25.9957 27.1758C24.9478 26.1472 23.6059 24.9001 21.7514 24.913C17.3062 24.9435 15.2829 27.1436 13.4621 31.1999C12.3565 33.6603 12.0158 41.1123 12.9318 41.8338C13.896 42.594 16.4352 42.5329 17.6309 42.6518C21.0285 42.9869 24.4553 42.8772 27.8245 42.3256Z" fill="#404040"/>
<path id="Vector_8" d="M25.9362 30.8785C26.0208 30.7626 26.1307 30.6675 26.2576 30.6004C26.6321 30.4172 27.0852 30.6326 27.3826 30.9219C27.7577 31.3175 28.0187 31.8073 28.1379 32.3393C28.252 32.8672 28.3059 33.4063 28.2986 33.9464C28.3082 34.6095 28.2879 35.2727 28.2375 35.9359C28.1862 36.9114 27.9823 37.8729 27.6333 38.7852C27.2588 39.6868 26.6465 40.5112 25.8076 41.0078C25.1841 38.7772 25.1262 36.4341 25.0732 34.1199C25.0636 33.7519 25.0555 33.3855 25.0636 33.0191C25.0636 32.8744 25.0234 32.5948 25.0925 32.4663C25.1616 32.3377 25.2853 32.3634 25.3978 32.2782C25.5762 32.1448 25.5457 31.8973 25.5859 31.6949C25.648 31.4024 25.767 31.125 25.9362 30.8785Z" fill="url(#paint2_linear_141_3437)"/>
<path id="Vector_9" d="M14.1644 35.6322C14.0008 35.6547 13.8449 35.7158 13.7096 35.8105C13.5943 35.9139 13.5047 36.0426 13.4476 36.1866C13.194 36.7441 13.0763 37.3538 13.1042 37.9657C13.1322 38.5775 13.305 39.174 13.6084 39.7061C13.6084 39.7061 14.3653 38.8945 14.4312 38.8109C14.6919 38.4724 14.923 38.1122 15.1222 37.7342C15.3038 37.3887 16.2568 35.7864 15.7763 35.5888C15.4725 35.465 14.5308 35.555 14.1644 35.6322Z" fill="url(#paint3_linear_141_3437)"/>
<path id="Vector_10" d="M15.2523 41.5414C14.9004 40.7266 14.9711 39.7961 15.0916 38.917C15.1993 38.1521 15.3552 37.3646 15.8036 36.7362C16.2211 36.1848 16.7951 35.772 17.4508 35.5518C18.1027 35.3355 18.7815 35.2111 19.4677 35.1822C20.4535 35.1147 21.4432 35.1308 22.4263 35.2304C23.1182 35.2774 23.7973 35.4403 24.4351 35.7125C25.303 36.137 25.9946 36.8524 26.3893 37.7342C26.7784 38.6154 26.9105 39.5887 26.7702 40.5418C26.7386 40.9519 26.5915 41.3447 26.3459 41.6747C26.0583 41.9695 25.6953 42.1796 25.2965 42.2822C23.8502 42.7451 22.317 42.7097 20.8192 42.6502C19.577 42.602 18.3218 42.6727 17.0989 42.4317C16.3821 42.2919 15.5802 42.3031 15.2523 41.5414Z" fill="url(#paint4_linear_141_3437)"/>
<path id="Vector_11" d="M30.6127 56.5883C20.5926 60.5948 8.79033 56.2541 8.79033 56.2541V53.8435C8.70033 50.0797 10.7895 45.6153 14.5902 44.4903C18.391 43.3654 18.1258 42.0492 18.1258 42.0492C14.7059 39.1018 14.2688 28.4132 22.0358 28.8568C23.9643 28.966 25.8204 30.4638 26.4022 35.3107C26.984 40.1577 23.1881 42.2742 23.1881 42.2742C23.1369 42.5121 23.1551 42.7598 23.2406 42.9877C23.3261 43.2156 23.4752 43.4142 23.6702 43.5598C23.9848 43.8024 24.3458 43.978 24.7308 44.0757C31.5689 46.4493 30.6127 56.5883 30.6127 56.5883Z" fill="#F7AF87"/>
<path id="Vector_12" d="M17.8141 35.9247C19.3279 35.9247 20.8579 35.7077 22.2448 35.1034C23.6317 34.4992 24.8675 33.4787 25.5746 32.1432C25.8132 31.7242 25.9513 31.2555 25.978 30.774C25.9957 29.8644 25.4187 29.0143 24.6521 28.5241C23.8856 28.0339 22.9583 27.8572 22.0503 27.8186C20.0945 27.7366 18.0744 28.2879 16.5863 29.5591C15.9696 30.0826 15.4663 30.7265 15.107 31.4513C14.7478 32.1761 14.5403 32.9666 14.4971 33.7744C14.4248 35.539 16.3709 35.9231 17.8141 35.9247Z" fill="#404040"/>
<path id="Vector_13" d="M31.5433 56.5064C31.5433 56.5064 30.7799 50.7354 29.6051 48.3296C28.6136 46.2999 26.9615 44.4839 24.8016 43.8218C24.6816 43.7769 24.5532 43.7594 24.4256 43.7703C24.2681 43.8106 24.1229 43.8889 24.0029 43.9985C22.8287 44.8822 21.3705 45.3032 19.906 45.1814C18.4415 45.0597 17.0729 44.4035 16.0608 43.338C13.4722 44.1398 11.283 45.8915 9.93301 48.2412C8.57343 50.5827 8.05756 53.3726 8.30665 56.0692C8.30665 56.0692 19.9708 60.7988 31.5433 56.5064Z" fill="#68E1FD"/>
<path id="Vector_14" d="M23.2122 58.0331C23.2122 58.0331 18.7654 58.5265 17.8622 58.0749C17.8622 58.0749 20.1121 45.9817 25.4669 44.2412C25.4669 44.2412 27.7875 44.6269 29.6051 48.3296C30.1338 49.4048 23.2122 58.0331 23.2122 58.0331Z" fill="url(#paint5_linear_141_3437)"/>
<path id="Vector_15" d="M23.2251 60.5675V53.2456C23.2251 53.2456 24.9784 46.6567 31.0708 45.9013C37.1632 45.146 43.7554 46.152 43.7554 46.152C43.7554 46.152 50.1837 46.9861 51.3488 54.9138V61.1733C51.3488 61.1733 35.1592 65.8531 23.2251 60.5675Z" fill="#68E1FD"/>
<g id="Group_2">
<path id="Vector_16" d="M31.2926 37.3999C31.0322 37.2392 30.7124 37.1283 30.4263 37.2392C30.3079 37.2857 30.2018 37.3588 30.1162 37.453C29.6646 37.9351 29.6903 38.6856 29.8333 39.3284C29.9129 39.6892 30.0204 40.0433 30.1547 40.3875C30.2107 40.547 30.2916 40.6967 30.3942 40.831C30.7156 41.2119 31.2781 41.2633 31.7731 41.2055C32.0656 41.1717 32.3918 41.0833 32.5252 40.8198C32.5711 40.7185 32.5973 40.6094 32.6023 40.4984C32.7357 39.1982 32.4304 38.0877 31.2926 37.3999Z" fill="#F7AF87"/>
<path id="Vector_17" d="M43.5481 37.9271C43.9129 37.6731 44.3869 37.4771 44.7967 37.6539C44.9571 37.7349 45.0934 37.8564 45.1924 38.0064C45.2913 38.1563 45.3494 38.3295 45.3608 38.5088C45.3794 38.8674 45.3167 39.2256 45.1776 39.5566C45.0365 39.9818 44.8156 40.3761 44.5268 40.7185C44.2335 41.0618 43.8189 41.2783 43.3697 41.3228C43.1462 41.3402 42.9224 41.2935 42.7246 41.1882C42.5268 41.0829 42.3631 40.9233 42.2528 40.7282C42.1437 40.4675 42.0932 40.1861 42.1049 39.9038C42.0849 39.6868 42.1095 39.468 42.1772 39.2609C42.354 38.819 43.1736 38.1874 43.5481 37.9271Z" fill="#F7AF87"/>
<path id="Vector_18" d="M33.5312 46.61C33.3885 46.8553 33.3049 47.1304 33.2869 47.4136C33.2975 47.5801 33.3378 47.7434 33.4058 47.8957C33.994 49.3421 35.2122 50.0717 36.387 50.4092C36.7395 50.519 37.1057 50.5791 37.4749 50.5875C38.5838 50.5875 39.6798 49.8258 40.3468 48.5964C40.3858 48.5334 40.4104 48.4626 40.4191 48.3891C40.4154 48.2935 40.3884 48.2002 40.3404 48.1175C39.9257 47.2239 40.0013 46.0717 40.1105 45.0223C40.1272 44.9355 40.1217 44.846 40.0945 44.7619C40.078 44.73 40.0553 44.7018 40.0277 44.6788C40.0001 44.6559 39.9681 44.6388 39.9338 44.6285C39.2154 44.3264 38.444 44.5144 37.6839 44.4855C36.6393 44.4469 35.6268 43.9664 34.5806 43.9648C34.1146 43.9648 34.0792 44.1384 34.0133 44.7217C33.9553 45.373 33.7925 46.0107 33.5312 46.61Z" fill="#F7AF87"/>
</g>
<path id="Vector_19" d="M33.5441 43.6032C33.5441 43.6032 34.1467 45.9656 35.6075 47.5132C37.0684 49.0608 40.5268 48.7651 40.1186 47.383C39.7747 46.2243 40.4191 43.6032 40.4191 43.6032H33.5441Z" fill="url(#paint6_linear_141_3437)"/>
<path id="Vector_20" d="M49.1487 34.8817C48.988 34.721 48.8 34.5603 48.5734 34.5458C48.4848 34.546 48.3974 34.566 48.3176 34.6044C48.2378 34.6428 48.1676 34.6985 48.1121 34.7676C48.0015 34.9078 47.928 35.0736 47.8984 35.2497C47.8224 35.6765 47.8561 36.1156 47.9964 36.5257C48.1571 37.0271 48.4448 37.535 48.9333 37.7262C49.0174 37.7668 49.1106 37.785 49.2037 37.7791C49.2969 37.7731 49.387 37.7433 49.4653 37.6924C49.5704 37.5871 49.6357 37.4485 49.6501 37.3003C49.8413 36.3538 49.8719 35.5856 49.1487 34.8817Z" fill="#F7AF87"/>
<path id="Vector_21" d="M43.1704 39.1484C42.7092 43.0231 40.5557 46.2195 37.3287 46.2195C34.1017 46.2195 31.487 43.0552 31.487 39.1484C31.487 35.2416 33.5617 30.8367 36.7903 30.8367C40.0189 30.8367 44.1137 31.2288 43.1704 39.1484Z" fill="#F7AF87"/>
<path id="Vector_22" d="M30.6063 37.8708C30.3921 36.3377 30.2512 34.796 30.1837 33.2457C30.1547 32.5627 30.166 31.7993 30.624 31.2963C30.7447 31.1862 30.8525 31.0627 30.9454 30.9283C31.0216 30.7558 31.0636 30.5703 31.0692 30.3819C31.2427 28.9178 32.3018 27.6949 33.5167 26.8608C34.848 25.9492 36.3916 25.3957 37.9988 25.2537C38.5156 25.1975 39.0379 25.2197 39.5481 25.3196C40.0609 25.4448 40.5533 25.6423 41.0105 25.9062C41.7369 26.2999 42.436 26.7756 42.9518 27.42C43.4677 28.0645 43.7843 28.9018 43.675 29.7198C44.0291 29.8712 44.3472 30.0959 44.6084 30.3789C44.8695 30.662 45.0679 30.9971 45.1905 31.3622C45.4273 32.1197 45.5028 32.9184 45.4123 33.7069C45.2516 35.584 44.538 37.5108 43.0402 38.6519C43.0643 37.3395 42.7733 36.0406 42.1917 34.864C41.9692 34.463 41.767 34.0511 41.5858 33.6298C41.4152 33.1787 41.3323 32.6993 41.3416 32.2171C40.7148 32.5514 40.3468 33.236 39.7554 33.6314C39.3772 33.8605 38.958 34.0139 38.5211 34.083C37.1154 34.3606 35.6646 34.31 34.2817 33.9351C33.7353 33.7873 33.0394 33.633 32.6955 34.083C32.4818 34.361 32.5187 34.7467 32.4898 35.097C32.4422 35.4788 32.35 35.8537 32.215 36.2139L31.3633 38.7852C31.074 38.5394 30.661 38.2485 30.6063 37.8708Z" fill="#404040"/>
<path id="Vector_23" d="M23.6959 43.6289C20.9944 45.3597 19.1125 42.4252 19.0258 42.279C19.6602 42.634 20.3751 42.8204 21.1021 42.8204C21.8291 42.8204 22.544 42.634 23.1784 42.279C23.1273 42.517 23.1455 42.7646 23.231 42.9925C23.3164 43.2204 23.4655 43.419 23.6605 43.5646L23.6959 43.6289Z" fill="url(#paint7_linear_141_3437)"/>
<path id="Vector_24" d="M49.1246 36.6221C49.0121 36.4759 48.8932 36.3007 48.9478 36.1207C49.0025 35.9407 49.1921 35.8475 49.1937 35.6739C49.19 35.6246 49.176 35.5767 49.1524 35.5332C49.1289 35.4897 49.0964 35.4517 49.0571 35.4216C48.9647 35.3366 48.8464 35.285 48.7212 35.2754C48.6782 35.2722 48.6352 35.2817 48.5975 35.3027C48.5549 35.3335 48.5229 35.3767 48.5059 35.4265C48.3178 35.8475 48.3805 36.3425 48.546 36.7732C48.5739 36.855 48.6169 36.9308 48.673 36.9966C48.7523 37.069 48.8484 37.1203 48.9526 37.146C49.1133 37.1974 49.303 37.1991 49.3399 36.9982C49.3673 36.8535 49.1985 36.725 49.1246 36.6221Z" fill="url(#paint8_linear_141_3437)"/>
<path id="Vector_25" d="M60.5685 36.6542C60.681 36.508 60.7999 36.3328 60.7453 36.1528C60.6906 35.9728 60.501 35.8796 60.4978 35.7061C60.5019 35.6567 60.5163 35.6087 60.5401 35.5652C60.5639 35.5218 60.5966 35.4838 60.636 35.4538C60.728 35.3681 60.8465 35.3166 60.9719 35.3075C61.0144 35.3042 61.0569 35.3137 61.094 35.3348C61.1371 35.3655 61.1696 35.4087 61.1872 35.4586C61.3736 35.8796 61.311 36.3746 61.1454 36.8053C61.1206 36.8996 61.0692 36.9848 60.9974 37.0509C60.9257 37.117 60.8365 37.1611 60.7405 37.1781C60.5798 37.2296 60.3901 37.2312 60.3515 37.0303C60.3258 36.8889 60.4881 36.7571 60.5685 36.6542Z" fill="url(#paint9_linear_141_3437)"/>
<path id="Vector_26" d="M43.18 39.7061C43.3579 39.7265 43.5373 39.6833 43.6862 39.584C43.7642 39.5472 43.832 39.492 43.8839 39.4233C44.0157 39.2159 43.8711 38.9283 43.9659 38.7033C44.0126 38.6214 44.0777 38.5515 44.1561 38.4991C44.2345 38.4466 44.3239 38.4131 44.4175 38.4012C44.4832 38.3793 44.5542 38.3793 44.6199 38.4012C44.669 38.4341 44.7085 38.4793 44.7344 38.5324C44.7604 38.5854 44.7719 38.6444 44.7678 38.7033C44.8005 39.2126 44.6372 39.7151 44.3114 40.1079C44.1483 40.301 43.9477 40.459 43.7217 40.5723C43.4958 40.6855 43.2491 40.7517 42.9968 40.7668C42.9711 40.7704 42.9448 40.7665 42.9213 40.7555C42.8955 40.7382 42.8771 40.7118 42.8698 40.6816C42.8188 40.5363 42.8068 40.3801 42.835 40.2286C42.8632 40.0772 42.9306 39.9358 43.0306 39.8186" fill="url(#paint10_linear_141_3437)"/>
<path id="Vector_27" d="M30.5822 39.0424C30.6562 39.1661 30.8056 39.2143 30.9294 39.2867C31.0532 39.3612 31.1562 39.4659 31.2287 39.5909C31.3012 39.7159 31.3408 39.8573 31.344 40.0018C31.3534 40.0971 31.3319 40.1929 31.2827 40.2751C31.2335 40.3573 31.1592 40.4215 31.0708 40.4582C30.8924 40.508 30.714 40.3811 30.5887 40.2445C30.4268 40.0641 30.302 39.8536 30.2215 39.625C30.141 39.3964 30.1063 39.1542 30.1194 38.9122C30.129 38.7515 30.1982 38.3465 30.4553 38.4301C30.661 38.5024 30.4826 38.8752 30.5822 39.0424Z" fill="url(#paint11_linear_141_3437)"/>
<path id="Vector_28" d="M31.1624 34.1295C30.9904 34.3679 30.8885 34.6495 30.8683 34.9427C30.8359 35.3663 30.851 35.7921 30.9133 36.2123L31.156 38.3963C31.4581 37.3517 32.1716 36.4405 32.3339 35.3654C32.3854 35.0231 32.3757 34.6663 32.485 34.3353C32.5332 34.1906 32.8193 33.8338 32.7132 33.6924C32.6071 33.551 31.9981 33.6635 31.839 33.7085C31.5753 33.7754 31.3388 33.9225 31.1624 34.1295Z" fill="url(#paint12_linear_141_3437)"/>
<path id="Vector_29" d="M43.1624 30.4831C43.1867 30.4692 43.2149 30.4636 43.2427 30.467C43.2781 30.4751 43.299 30.5088 43.3183 30.541C43.6879 31.1725 44.0639 31.817 44.2263 32.5321C44.3105 32.9275 44.3446 33.3319 44.3275 33.7358C44.2861 35.0942 43.8659 36.414 43.1142 37.5462C42.9631 37.0464 42.9792 36.5096 42.8586 36.0002C42.6979 35.3091 42.2946 34.7033 41.9426 34.0862C41.6212 33.5237 41.0603 32.5739 41.4685 31.96C41.874 31.3105 42.4637 30.7964 43.1624 30.4831Z" fill="url(#paint13_linear_141_3437)"/>
<path id="Vector_30" d="M51.5432 41.5414C51.5432 41.5414 52.4577 42.6567 54.4472 42.7161C56.5942 42.7804 57.6067 41.9865 57.6067 41.9865C57.6067 41.9865 56.6601 44.0757 54.2961 44.5417C52.8 44.8407 51.1174 44.1978 50.8168 43.4168C50.8168 43.4248 51.7971 42.5136 51.5432 41.5414Z" fill="url(#paint14_linear_141_3437)"/>
<path id="Vector_31" d="M33.5874 46.0026C33.5874 46.0026 34.1676 48.7732 36.2294 49.4176C38.2913 50.062 40.0318 48.0002 40.096 46.647C40.1603 45.2939 40.4833 45.6828 40.4833 45.6828L40.9992 46.0042V51.0954L37.0683 50.5136L33.2017 51.6096C33.2017 51.6096 32.17 46.9684 32.7501 45.6796" fill="#68E1FD"/>
</g>
</g>
</g>
<defs>
<linearGradient id="paint0_linear_141_3437" x1="37.7729" y1="-15.0977" x2="37.7729" y2="104.169" gradientUnits="userSpaceOnUse">
<stop offset="0.0482937" stop-color="#FC41FF"/>
<stop offset="0.837767" stop-color="#CC1BCF" stop-opacity="0"/>
</linearGradient>
<linearGradient id="paint1_linear_141_3437" x1="38.6593" y1="46.9427" x2="73.7674" y2="64.9998" gradientUnits="userSpaceOnUse">
<stop stop-opacity="0"/>
<stop offset="0.99"/>
</linearGradient>
<linearGradient id="paint2_linear_141_3437" x1="24.5943" y1="37.0866" x2="30.0246" y2="32.3505" gradientUnits="userSpaceOnUse">
<stop stop-opacity="0"/>
<stop offset="0.6" stop-opacity="0.36"/>
<stop offset="0.99"/>
</linearGradient>
<linearGradient id="paint3_linear_141_3437" x1="14.2897" y1="39.5036" x2="14.7574" y2="33.424" gradientUnits="userSpaceOnUse">
<stop stop-opacity="0"/>
<stop offset="0.99"/>
</linearGradient>
<linearGradient id="paint4_linear_141_3437" x1="21.0057" y1="35.674" x2="20.8128" y2="44.3746" gradientUnits="userSpaceOnUse">
<stop stop-opacity="0"/>
<stop offset="0.99"/>
</linearGradient>
<linearGradient id="paint5_linear_141_3437" x1="17.3383" y1="48.8776" x2="38.3925" y2="59.7061" gradientUnits="userSpaceOnUse">
<stop stop-opacity="0"/>
<stop offset="0.99"/>
</linearGradient>
<linearGradient id="paint6_linear_141_3437" x1="34.7365" y1="48.6928" x2="41.3142" y2="39.3638" gradientUnits="userSpaceOnUse">
<stop stop-opacity="0"/>
<stop offset="0.99"/>
</linearGradient>
<linearGradient id="paint7_linear_141_3437" x1="20.8369" y1="45.3903" x2="22.1258" y2="39.3975" gradientUnits="userSpaceOnUse">
<stop stop-opacity="0"/>
<stop offset="0.99"/>
</linearGradient>
<linearGradient id="paint8_linear_141_3437" x1="48.0945" y1="36.185" x2="50.9952" y2="36.3296" gradientUnits="userSpaceOnUse">
<stop stop-opacity="0"/>
<stop offset="0.99"/>
</linearGradient>
<linearGradient id="paint9_linear_141_3437" x1="61.597" y1="36.2171" x2="58.6963" y2="36.3618" gradientUnits="userSpaceOnUse">
<stop stop-opacity="0"/>
<stop offset="0.99"/>
</linearGradient>
<linearGradient id="paint10_linear_141_3437" x1="45.0989" y1="40.1673" x2="40.6087" y2="38.1681" gradientUnits="userSpaceOnUse">
<stop stop-opacity="0"/>
<stop offset="0.99"/>
</linearGradient>
<linearGradient id="paint11_linear_141_3437" x1="30.0503" y1="39.7752" x2="32.612" y2="38.4863" gradientUnits="userSpaceOnUse">
<stop stop-opacity="0"/>
<stop offset="0.99"/>
</linearGradient>
<linearGradient id="paint12_linear_141_3437" x1="32.4111" y1="38.0894" x2="31.2508" y2="33.0625" gradientUnits="userSpaceOnUse">
<stop stop-opacity="0"/>
<stop offset="0.6" stop-opacity="0.36"/>
<stop offset="0.99"/>
</linearGradient>
<linearGradient id="paint13_linear_141_3437" x1="45.5135" y1="31.1083" x2="40.9061" y2="36.2654" gradientUnits="userSpaceOnUse">
<stop stop-opacity="0"/>
<stop offset="0.6" stop-opacity="0.36"/>
<stop offset="0.99"/>
</linearGradient>
<linearGradient id="paint14_linear_141_3437" x1="55.1061" y1="46.745" x2="52.1459" y2="33.3678" gradientUnits="userSpaceOnUse">
<stop stop-opacity="0"/>
<stop offset="0.99"/>
</linearGradient>
</defs>
</svg>
