<svg width="549" height="549" viewBox="0 0 549 549" fill="none" xmlns="http://www.w3.org/2000/svg">
<path d="M274.5 503.25C400.836 503.25 503.25 400.836 503.25 274.5C503.25 148.165 400.836 45.75 274.5 45.75C148.165 45.75 45.75 148.165 45.75 274.5C45.75 400.836 148.165 503.25 274.5 503.25Z" fill="url(#paint0_linear_73_474)"/>
<g filter="url(#filter0_f_73_474)">
<path d="M274.5 441.587C366.78 441.587 441.587 366.78 441.587 274.5C441.587 182.22 366.78 107.413 274.5 107.413C182.22 107.413 107.413 182.22 107.413 274.5C107.413 366.78 182.22 441.587 274.5 441.587Z" fill="url(#paint1_linear_73_474)"/>
</g>
<path fill-rule="evenodd" clip-rule="evenodd" d="M165.29 102.6C169.117 102.6 172.219 99.4971 172.219 95.67C172.219 91.8431 169.117 88.7407 165.29 88.7407C161.463 88.7407 158.36 91.8431 158.36 95.67C158.36 99.4971 161.463 102.6 165.29 102.6ZM165.29 107.797C171.987 107.797 177.416 102.367 177.416 95.67C177.416 88.9728 171.987 83.5435 165.29 83.5435C158.592 83.5435 153.163 88.9728 153.163 95.67C153.163 102.367 158.592 107.797 165.29 107.797Z" fill="white"/>
<path fill-rule="evenodd" clip-rule="evenodd" d="M101.638 395.002C105.465 395.002 108.567 391.898 108.567 388.071C108.567 384.244 105.465 381.143 101.638 381.143C97.8106 381.143 94.7082 384.244 94.7082 388.071C94.7082 391.898 97.8106 395.002 101.638 395.002ZM101.638 400.199C108.335 400.199 113.764 394.769 113.764 388.071C113.764 381.374 108.335 375.946 101.638 375.946C94.9403 375.946 89.511 381.374 89.511 388.071C89.511 394.769 94.9403 400.199 101.638 400.199Z" fill="white"/>
<path fill-rule="evenodd" clip-rule="evenodd" d="M449.734 200.067C453.561 200.067 456.665 196.964 456.665 193.137C456.665 189.311 453.561 186.208 449.734 186.208C445.907 186.208 442.806 189.311 442.806 193.137C442.806 196.964 445.907 200.067 449.734 200.067ZM449.734 205.264C456.432 205.264 461.862 199.834 461.862 193.137C461.862 186.44 456.432 181.011 449.734 181.011C443.037 181.011 437.609 186.44 437.609 193.137C437.609 199.834 443.037 205.264 449.734 205.264Z" fill="white"/>
<path d="M86.3104 103.81C86.82 101.699 89.8234 101.699 90.333 103.81L92.0484 110.916C92.2306 111.671 92.8198 112.26 93.5743 112.442L100.681 114.158C102.792 114.667 102.792 117.671 100.681 118.18L93.5743 119.896C92.8198 120.078 92.2306 120.667 92.0484 121.422L90.333 128.528C89.8234 130.64 86.82 130.64 86.3104 128.528L84.595 121.422C84.4128 120.667 83.8238 120.078 83.0691 119.896L75.9627 118.18C73.8513 117.671 73.8513 114.667 75.9627 114.158L83.0691 112.442C83.8238 112.26 84.4128 111.671 84.595 110.916L86.3104 103.81Z" fill="white"/>
<path d="M456.096 102.622C456.653 100.308 459.945 100.308 460.504 102.622L462.385 110.411C462.584 111.239 463.231 111.884 464.056 112.084L471.846 113.964C474.161 114.523 474.161 117.815 471.846 118.374L464.056 120.254C463.231 120.454 462.584 121.099 462.385 121.927L460.504 129.716C459.945 132.031 456.653 132.031 456.096 129.716L454.214 121.927C454.015 121.099 453.369 120.454 452.541 120.254L444.752 118.374C442.438 117.815 442.438 114.523 444.752 113.964L452.541 112.084C453.369 111.884 454.015 111.239 454.214 110.411L456.096 102.622Z" fill="url(#paint2_linear_73_474)"/>
<path d="M109.464 440.069C112.098 439.648 114.2 442.233 113.248 444.726L106.826 461.544C105.874 464.036 102.582 464.563 100.9 462.493L89.5461 448.521C87.8639 446.452 89.0534 443.337 91.687 442.916L109.464 440.069Z" fill="url(#paint3_linear_73_474)"/>
<path d="M425.63 393.862C424.972 391.276 427.357 388.949 429.925 389.669L447.258 394.54C449.824 395.262 450.649 398.492 448.74 400.354L435.856 412.93C433.947 414.793 430.738 413.89 430.078 411.306L425.63 393.862Z" fill="url(#paint4_linear_73_474)"/>
<path d="M363.034 306.056L208.584 249.839C196.745 245.53 183.654 251.635 179.345 263.474L142.885 363.647C138.576 375.486 144.68 388.577 156.519 392.885L310.971 449.102C322.81 453.41 335.901 447.306 340.209 435.466L376.67 335.294C380.978 323.454 374.874 310.364 363.034 306.056Z" fill="url(#paint5_linear_73_474)"/>
<path d="M356.764 337.082L402.389 271.363C409.574 261.014 407.01 246.799 396.66 239.615L330.942 193.99C320.592 186.804 306.378 189.37 299.193 199.719L253.568 265.438C246.384 275.787 248.948 290.001 259.297 297.186L325.016 342.811C335.365 349.995 349.58 347.429 356.764 337.082Z" fill="url(#paint6_linear_73_474)"/>
<path d="M330.211 249.745L324.903 245.894L299.551 280.853L304.86 284.704L330.211 249.745Z" fill="url(#paint7_linear_73_474)"/>
<path d="M360.027 256.019L321.529 250.569L324.911 245.888L363.402 251.356L360.027 256.019Z" fill="url(#paint8_linear_73_474)"/>
<path d="M353.636 264.827L315.136 259.377L318.518 254.696L357.027 260.17L353.636 264.827Z" fill="url(#paint9_linear_73_474)"/>
<path d="M322.979 191.614L309.618 129.712C306.961 117.397 294.821 109.568 282.506 112.226L201.56 129.697C189.246 132.356 181.417 144.494 184.075 156.809L197.436 218.711C200.094 231.026 212.232 238.855 224.549 236.197L305.493 218.725C317.809 216.067 325.636 203.93 322.979 191.614Z" fill="url(#paint10_linear_73_474)"/>
<path d="M337.82 431.798C334.663 445.07 320.642 452.623 307.824 447.956L153.661 391.845C142.777 387.884 136.589 376.397 139.27 365.129L161.162 273.104C164.319 259.832 178.339 252.279 191.157 256.946L345.321 313.057C356.204 317.018 362.392 328.505 359.712 339.773L337.82 431.798Z" fill="url(#paint11_linear_73_474)"/>
<defs>
<filter id="filter0_f_73_474" x="53.4131" y="53.413" width="442.174" height="442.174" filterUnits="userSpaceOnUse" color-interpolation-filters="sRGB">
<feFlood flood-opacity="0" result="BackgroundImageFix"/>
<feBlend mode="normal" in="SourceGraphic" in2="BackgroundImageFix" result="shape"/>
<feGaussianBlur stdDeviation="27" result="effect1_foregroundBlur_73_474"/>
</filter>
<linearGradient id="paint0_linear_73_474" x1="109.568" y1="45.75" x2="458.739" y2="118.435" gradientUnits="userSpaceOnUse">
<stop stop-color="#A259FF"/>
<stop offset="1" stop-color="#3B3B3B"/>
</linearGradient>
<linearGradient id="paint1_linear_73_474" x1="467.446" y1="302.348" x2="343.113" y2="516.663" gradientUnits="userSpaceOnUse">
<stop stop-color="#A259FF" stop-opacity="0"/>
<stop offset="1" stop-color="#FF6250"/>
</linearGradient>
<linearGradient id="paint2_linear_73_474" x1="464.834" y1="107.679" x2="494.134" y2="130.692" gradientUnits="userSpaceOnUse">
<stop stop-color="#A259FF"/>
<stop offset="1" stop-color="#377DF7"/>
</linearGradient>
<linearGradient id="paint3_linear_73_474" x1="112.18" y1="448.599" x2="111.201" y2="477.751" gradientUnits="userSpaceOnUse">
<stop stop-color="#A259FF"/>
<stop offset="1" stop-color="#377DF7"/>
</linearGradient>
<linearGradient id="paint4_linear_73_474" x1="433.879" y1="390.383" x2="463" y2="388.712" gradientUnits="userSpaceOnUse">
<stop stop-color="#A259FF"/>
<stop offset="1" stop-color="#377DF7"/>
</linearGradient>
<linearGradient id="paint5_linear_73_474" x1="316.427" y1="325.09" x2="401.631" y2="528.727" gradientUnits="userSpaceOnUse">
<stop stop-color="#A259FF"/>
<stop offset="0.416667" stop-color="#A259FF" stop-opacity="0"/>
</linearGradient>
<linearGradient id="paint6_linear_73_474" x1="341.327" y1="310.364" x2="194.954" y2="355.344" gradientUnits="userSpaceOnUse">
<stop stop-color="#FF7262"/>
<stop offset="0.317708" stop-color="#A259FF"/>
</linearGradient>
<linearGradient id="paint7_linear_73_474" x1="375.627" y1="186.294" x2="389.931" y2="200.335" gradientUnits="userSpaceOnUse">
<stop stop-color="#3B3B3B"/>
<stop offset="1" stop-color="#A259FF"/>
</linearGradient>
<linearGradient id="paint8_linear_73_474" x1="369.043" y1="227.292" x2="368.459" y2="267.488" gradientUnits="userSpaceOnUse">
<stop stop-color="#3B3B3B"/>
<stop offset="1" stop-color="#A259FF"/>
</linearGradient>
<linearGradient id="paint9_linear_73_474" x1="362.666" y1="236.106" x2="362.077" y2="276.302" gradientUnits="userSpaceOnUse">
<stop stop-color="#3B3B3B"/>
<stop offset="1" stop-color="#A259FF"/>
</linearGradient>
<linearGradient id="paint10_linear_73_474" x1="271.653" y1="129.085" x2="297.484" y2="213.513" gradientUnits="userSpaceOnUse">
<stop stop-color="#FF7262"/>
<stop offset="1" stop-color="#A259FF"/>
</linearGradient>
<linearGradient id="paint11_linear_73_474" x1="300.886" y1="403.406" x2="193.589" y2="130.41" gradientUnits="userSpaceOnUse">
<stop stop-color="#A259FF"/>
<stop offset="0.666667" stop-color="white"/>
</linearGradient>
</defs>
</svg>
