<svg width="75" height="75" viewBox="0 0 75 75" fill="none" xmlns="http://www.w3.org/2000/svg">
<g id="Featured icon">
<rect x="0.886475" y="0.886475" width="73.7729" height="73.7729" rx="15.3694" fill="url(#paint0_linear_150_1081)"/>
<g id="&#240;&#159;&#166;&#134; icon &#34;User Circle&#34;">
<path id="Vector" d="M38.0655 11.8865C23.6037 11.8865 11.8865 23.6037 11.8865 38.0655C11.8865 52.5274 23.6037 64.2446 38.0655 64.2446C52.5274 64.2446 64.2446 52.5274 64.2446 38.0655C64.2446 23.6037 52.5274 11.8865 38.0655 11.8865ZM38.0655 22.0203C43.1958 22.0203 47.3549 26.1794 47.3549 31.3097C47.3549 36.4399 43.1958 40.599 38.0655 40.599C32.9353 40.599 28.7762 36.4399 28.7762 31.3097C28.7762 26.1794 32.9353 22.0203 38.0655 22.0203ZM38.0655 58.3332C31.8691 58.3332 26.3166 55.5253 22.6009 51.134C24.5854 47.3971 28.4701 44.8214 32.9986 44.8214C33.252 44.8214 33.5053 44.8636 33.7481 44.9375C35.1204 45.3809 36.556 45.6659 38.0655 45.6659C39.5751 45.6659 41.0212 45.3809 42.383 44.9375C42.6258 44.8636 42.8791 44.8214 43.1325 44.8214C47.661 44.8214 51.5456 47.3971 53.5302 51.134C49.8144 55.5253 44.262 58.3332 38.0655 58.3332Z" fill="#53289A"/>
</g>
</g>
<defs>
<linearGradient id="paint0_linear_150_1081" x1="37.7729" y1="-15.0977" x2="37.7729" y2="104.169" gradientUnits="userSpaceOnUse">
<stop offset="0.0482937" stop-color="#FC41FF"/>
<stop offset="0.837767" stop-color="#CC1BCF" stop-opacity="0"/>
</linearGradient>
</defs>
</svg>
