<svg width="75" height="74" viewBox="0 0 75 74" fill="none" xmlns="http://www.w3.org/2000/svg">
<g id="Featured icon">
<rect x="0.886475" y="0.0684814" width="73.7729" height="73.7729" rx="15.3694" fill="url(#paint0_linear_150_1089)"/>
<g id="&#240;&#159;&#166;&#134; icon &#34;infinite&#34;">
<path id="Vector" d="M26.7711 31.4311C23.0897 31.4311 21.2491 33.9035 21.2491 36.9531C21.2491 40.0029 23.7213 42.4751 26.7711 42.4751C28.7904 42.4751 30.3944 41.0907 31.9246 39.081C33.2549 41.1908 34.6299 43.4098 36.1309 45.5579C33.7541 48.035 30.8035 49.8378 26.7711 49.8378C19.6551 49.8378 13.8865 44.0692 13.8865 36.9531C13.8865 29.8371 19.4085 24.0685 26.7711 24.0685C39.6558 24.0685 41.4965 42.4751 48.8591 42.4751C52.5405 42.4751 54.3811 40.0028 54.3811 36.9531C54.3811 33.9033 51.9089 31.4311 48.8591 31.4311C46.8398 31.4311 45.236 32.8156 43.7057 34.8252C42.3754 32.7155 41.0003 30.4964 39.4994 28.3483C41.8762 25.8712 44.8268 24.0685 48.8591 24.0685C55.9752 24.0685 61.7438 29.8371 61.7438 36.9531C61.7438 44.0692 56.2218 49.8378 48.8591 49.8378C35.9745 49.8378 34.1337 31.4311 26.7711 31.4311Z" fill="#3054D3"/>
</g>
</g>
<defs>
<linearGradient id="paint0_linear_150_1089" x1="37.7729" y1="-15.9157" x2="37.7729" y2="103.351" gradientUnits="userSpaceOnUse">
<stop offset="0.0482937" stop-color="#FC41FF"/>
<stop offset="0.837767" stop-color="#CC1BCF" stop-opacity="0"/>
</linearGradient>
</defs>
</svg>
