<svg width="537" height="532" viewBox="0 0 537 532" fill="none" xmlns="http://www.w3.org/2000/svg">
<path d="M364.641 11.3354C324.477 2.37478 282.718 -1.91994 241.888 0.817655C205.7 3.24398 164.68 9.86657 135.559 33.5885C121.681 44.8934 105.131 65.2071 100.591 83.1274C100.591 83.1296 76.6966 177.455 28.9089 197.668C-18.8794 217.881 -52.0658 562.85 310.329 529.162C310.329 529.162 523.18 520.334 535.996 266.06C539.092 204.635 537.362 137.108 500.273 85.7471C471.852 46.3886 432.031 28.8885 386.272 16.6435C379.124 14.7309 371.909 12.9567 364.641 11.3354Z" fill="#F4F7FA"/>
<path d="M196.303 470.103C232.69 441.985 236.487 383.747 218.216 368.509C208.713 360.583 197.172 367.569 188.46 358C178.808 347.397 188.204 333.58 185.993 303.772C184.851 288.371 182.78 260.443 166.242 250.926C149.841 241.488 135.565 259.565 117.358 250.386C100.142 241.706 106.364 222.244 85.176 204.856C83.2051 203.238 60.8091 185.308 43.4207 193.056C25.7548 200.928 19.497 232.523 29.1692 252.129C37.9568 269.941 57.3102 272.621 56.4171 283.22C55.4328 294.899 31.6078 295.47 29.4447 307.37C26.318 324.572 73.8155 335.929 75.4761 362.973C76.4525 378.876 60.4667 382.079 57.3266 402.254C53.274 428.292 74.9266 454.928 93.5462 468.068C120.53 487.11 164.764 494.475 196.303 470.103Z" fill="url(#paint0_linear_65_404)"/>
<mask id="mask0_65_404" style="mask-type:luminance" maskUnits="userSpaceOnUse" x="24" y="191" width="205" height="295">
<path d="M196.303 470.103C232.69 441.985 236.487 383.747 218.216 368.509C208.713 360.583 197.172 367.569 188.46 358C178.808 347.397 188.204 333.58 185.993 303.772C184.851 288.371 182.78 260.443 166.242 250.926C149.841 241.488 135.565 259.565 117.358 250.386C100.142 241.706 106.364 222.244 85.176 204.856C83.2051 203.238 60.8091 185.308 43.4207 193.056C25.7548 200.928 19.497 232.523 29.1692 252.129C37.9568 269.941 57.3102 272.621 56.4171 283.22C55.4328 294.899 31.6078 295.47 29.4447 307.37C26.318 324.572 73.8155 335.929 75.4761 362.973C76.4525 378.876 60.4667 382.079 57.3266 402.254C53.274 428.292 74.9266 454.928 93.5462 468.068C120.53 487.11 164.764 494.475 196.303 470.103Z" fill="white"/>
</mask>
<g mask="url(#mask0_65_404)">
<g opacity="0.7">
<path d="M177.917 495.804L179.319 495.403C163.799 441.14 146.127 390.868 126.792 345.983C111.32 310.067 94.7542 277.498 77.555 249.182C48.2458 200.928 26.9461 181.488 26.7344 181.298L25.7588 182.381C25.9691 182.57 47.154 201.919 76.3638 250.029C103.325 294.435 142.83 373.121 177.917 495.804Z" fill="white"/>
<path d="M80.2016 253.907C87.018 209.249 71.4626 173.418 71.3047 173.061L69.9718 173.651C70.1284 174.004 85.5102 209.467 78.7605 253.687L80.2016 253.907Z" fill="white"/>
<path d="M129.693 352.361C151.886 308.437 157.859 277.557 158.962 259.387C160.163 239.596 156.123 230.351 155.951 229.967L154.621 230.564C154.662 230.656 158.705 239.968 157.497 259.461C156.38 277.473 150.425 308.097 128.392 351.704L129.693 352.361Z" fill="white"/>
<path d="M165.071 449.667C220.136 383.561 220.821 332.836 220.821 332.332L219.364 332.33C219.363 332.457 219.147 345.605 211.825 366.977C205.377 385.795 191.838 415.256 163.951 448.734L165.071 449.667Z" fill="white"/>
<path d="M107.776 338.85C112.772 339.557 117.89 340.004 123.115 340.136L123.151 338.679C89.0149 337.82 59.2688 323.296 40.3274 311.263C19.7941 298.218 7.19822 285.225 7.07375 285.095L6.02292 286.106C6.14911 286.237 18.8662 299.355 39.5454 312.493C55.7484 322.787 79.8025 334.889 107.776 338.85Z" fill="white"/>
<path d="M150.134 431.026C152.831 431.408 155.579 431.7 158.379 431.894L158.48 430.44C122.964 427.98 95.7476 409.446 79.1681 394.331C61.1902 377.94 51.5122 361.948 51.4164 361.788L50.166 362.538C50.2629 362.699 60.0514 378.875 78.1859 395.408C93.6312 409.489 118.226 426.509 150.134 431.026Z" fill="white"/>
</g>
</g>
<path d="M360.966 453.323C315.011 430.602 298.044 367.791 314.658 347.116C323.3 336.362 337.45 341.457 344.865 329.082C353.08 315.37 339.77 302.338 335.626 269.275C333.485 252.192 329.602 221.214 345.581 207.173C361.427 193.249 381.008 209.864 398.886 195.824C415.79 182.549 404.707 162.649 424.036 138.982C425.834 136.781 446.364 112.256 467.073 116.897C488.112 121.612 501.905 154.765 495.649 178.32C489.966 199.72 469.405 206.909 472.713 218.295C476.36 230.842 502.523 226.222 507.506 238.752C514.709 256.864 465.3 279.729 469.437 309.651C471.87 327.246 494.393 328.708 491.053 351.224C485.67 387.518 478.429 396.219 460.972 414.677C435.673 441.427 400.798 473.017 360.966 453.323Z" fill="url(#paint1_linear_65_404)"/>
<mask id="mask1_65_404" style="mask-type:luminance" maskUnits="userSpaceOnUse" x="308" y="116" width="201" height="344">
<path d="M360.966 453.323C315.011 430.602 298.044 367.791 314.658 347.116C323.3 336.362 337.45 341.457 344.865 329.082C353.08 315.37 339.77 302.338 335.626 269.275C333.485 252.192 329.602 221.214 345.581 207.173C361.427 193.249 381.008 209.864 398.886 195.824C415.79 182.549 404.707 162.649 424.036 138.982C425.834 136.781 446.364 112.256 467.073 116.897C488.112 121.612 501.905 154.765 495.649 178.32C489.966 199.72 469.405 206.909 472.713 218.295C476.36 230.842 502.523 226.222 507.506 238.752C514.709 256.864 465.3 279.729 469.437 309.651C471.87 327.246 494.393 328.708 491.053 351.224C485.67 387.518 478.429 396.219 460.972 414.677C435.673 441.427 400.798 473.017 360.966 453.323Z" fill="white"/>
</mask>
<g mask="url(#mask1_65_404)">
<g opacity="0.7">
<path d="M386.716 477.364L385.096 477.235C390.114 414.517 398.364 355.686 409.616 302.376C418.62 259.719 429.557 220.48 442.121 185.748C463.532 126.562 482.532 100.629 482.721 100.374L484.026 101.343C483.837 101.597 464.943 127.405 443.609 186.412C423.917 240.876 398.061 335.565 386.716 477.364Z" fill="white"/>
<path d="M440.268 191.495C422.99 144.189 432.104 101.607 432.198 101.182L433.785 101.534C433.692 101.954 424.686 144.095 441.795 190.937L440.268 191.495Z" fill="white"/>
<path d="M407.849 309.986C373.928 266.866 360.603 234.433 355.399 214.818C349.731 193.453 352.112 182.46 352.215 182.003L353.8 182.362C353.775 182.471 351.406 193.539 357.017 214.577C362.201 234.015 375.45 266.173 409.126 308.981L407.849 309.986Z" fill="white"/>
<path d="M390.601 424.115C315.872 363.989 303.961 308.703 303.849 308.152L305.442 307.829C305.47 307.968 308.601 322.289 321.306 344.034C332.494 363.182 353.775 392.398 391.619 422.849L390.601 424.115Z" fill="white"/>
<path d="M428.828 290.395C423.524 292.268 418.028 293.884 412.348 295.177L411.987 293.593C449.105 285.142 478.417 262.721 496.469 245.402C516.038 226.626 526.945 209.654 527.052 209.485L528.423 210.359C528.314 210.53 517.303 227.665 497.594 246.574C482.152 261.39 458.528 279.911 428.828 290.395Z" fill="white"/>
<path d="M402.823 400.455C399.959 401.466 397.021 402.39 394.003 403.218L393.573 401.651C431.846 391.147 457.511 364.901 472.303 344.733C488.344 322.863 495.401 303.256 495.47 303.06L497.002 303.604C496.931 303.802 489.794 323.634 473.614 345.694C459.833 364.482 436.7 388.496 402.823 400.455Z" fill="white"/>
</g>
</g>
<path d="M412.672 472.324C412.672 480.795 406.661 488.039 399.249 488.472L113.32 505.161C104.829 505.656 97.896 498.647 97.896 489.536V79.371C97.896 70.2588 104.829 63.1263 113.32 63.4704L399.249 75.0577C406.661 75.3581 412.672 82.4944 412.672 90.9667V472.324Z" fill="url(#paint2_linear_65_404)"/>
<path d="M421.067 472.324C421.067 480.795 415.056 488.039 407.644 488.472L121.715 505.161C113.224 505.656 106.291 498.647 106.291 489.536V79.371C106.291 70.2588 113.224 63.1263 121.715 63.4704L407.644 75.0577C415.056 75.3581 421.067 82.4944 421.067 90.9667V472.324Z" fill="url(#paint3_linear_65_404)"/>
<path d="M113.484 79.6357V489.142C113.484 494.012 117.173 497.751 121.716 497.494L347.854 484.683L407.644 481.296C411.616 481.071 414.829 477.207 414.829 472.664V90.7368C414.829 86.1945 411.616 82.3873 407.644 82.2334L345.696 79.8292L121.716 71.1369C117.173 70.9604 113.484 74.7655 113.484 79.6357Z" fill="url(#paint4_linear_65_404)"/>
<path d="M410.689 90.4443V455C410.689 456.691 409.423 458.137 407.759 458.223L378.478 459.722L121.459 472.863C119.558 472.961 118.029 471.567 118.029 469.765V79.6456C118.029 77.837 119.581 76.4231 121.481 76.4953L124.526 76.6072L407.759 87.2612C409.423 87.327 410.689 88.7541 410.689 90.4443Z" fill="url(#paint5_linear_65_404)"/>
<path opacity="0.3" d="M378.523 459.722L121.481 472.863C119.581 472.961 118.029 471.567 118.029 469.765V79.6456C118.029 77.837 119.581 76.4231 121.481 76.4953L124.526 76.6072C133.319 88.5899 151.57 102.401 188.399 114.232C275.21 142.11 176.791 263.778 286.509 302.909C375.833 334.766 330.283 418.434 378.523 459.722Z" fill="url(#paint6_linear_65_404)"/>
<path d="M298.285 480.391L240.138 483.589C237.029 483.76 234.505 481.605 234.505 478.774V478.562C234.505 475.731 237.029 473.304 240.138 473.141L298.285 470.083C301.307 469.924 303.754 472.053 303.754 474.838V475.047C303.754 477.833 301.307 480.225 298.285 480.391Z" fill="url(#paint7_linear_65_404)"/>
<path d="M272.383 76.984C272.383 78.4897 271.051 79.6595 269.407 79.5966C267.762 79.5339 266.427 78.2607 266.427 76.7529C266.427 75.2451 267.762 74.0755 269.407 74.1403C271.051 74.2051 272.383 75.4783 272.383 76.984Z" fill="url(#paint8_linear_65_404)"/>
<path d="M360.324 267.548C372.769 267.548 382.858 253.371 382.858 235.883C382.858 218.394 372.769 204.217 360.324 204.217C347.88 204.217 337.791 218.394 337.791 235.883C337.791 253.371 347.88 267.548 360.324 267.548Z" fill="#D8DEE8"/>
<path d="M291.455 159.151H249.044C205.558 159.151 170.306 194.403 170.306 237.89V237.89C170.306 261.095 189.117 279.906 212.321 279.906H328.179C351.383 279.906 370.194 261.095 370.194 237.89C370.194 194.404 334.941 159.151 291.455 159.151Z" fill="white"/>
<path d="M284.007 366.005H256.492C228.28 366.005 205.409 343.134 205.409 314.922V314.921C205.409 299.867 217.613 287.663 232.667 287.663H307.832C322.887 287.663 335.091 299.867 335.091 314.921C335.091 343.134 312.22 366.005 284.007 366.005Z" fill="white"/>
<path d="M329.951 262.922H249.334C238.409 262.922 229.446 254.548 229.446 244.218V228.378C229.446 218.048 238.409 209.96 249.334 210.308L329.951 212.88C339.708 213.191 347.529 221.223 347.529 230.822V245.542C347.529 255.141 339.708 262.922 329.951 262.922Z" fill="url(#paint9_linear_65_404)"/>
<path d="M275.163 235.457C275.163 242.356 269.291 247.874 261.987 247.782C254.618 247.689 248.596 241.929 248.596 234.917C248.596 227.905 254.618 222.39 261.987 222.597C269.291 222.801 275.163 228.559 275.163 235.457Z" fill="white"/>
<path d="M329.644 236.565C329.644 243.232 324.159 248.568 317.341 248.481C310.463 248.394 304.844 242.833 304.844 236.061C304.844 229.288 310.463 223.955 317.341 224.148C324.159 224.339 329.644 229.898 329.644 236.565Z" fill="white"/>
<path opacity="0.3" d="M299.505 268.862C287.516 254.775 292.844 243.509 277.169 224.418C255.602 198.151 230.442 201.123 224.679 183.308C223.082 178.371 222.899 171.596 227.182 162.229C194.333 171.704 170.306 201.99 170.306 237.89V237.89C170.306 261.095 189.117 279.906 212.321 279.906H313.289C307.241 276.609 302.822 272.759 299.505 268.862Z" fill="white"/>
<path d="M181.636 267.328C194.081 267.328 204.17 253.151 204.17 235.662C204.17 218.174 194.081 203.996 181.636 203.996C169.192 203.996 159.103 218.174 159.103 235.662C159.103 253.151 169.192 267.328 181.636 267.328Z" fill="#D8DEE8"/>
<path d="M163.811 249.509C169.253 249.509 173.665 243.31 173.665 235.662C173.665 228.015 169.253 221.815 163.811 221.815C158.369 221.815 153.958 228.015 153.958 235.662C153.958 243.31 158.369 249.509 163.811 249.509Z" fill="#BFC8D6"/>
<path opacity="0.4" d="M290.783 337.882C287.008 320.154 245.253 320.582 244.117 308.994C243.242 300.061 267.215 291.217 270.228 290.106C272.804 289.155 275.362 288.351 277.893 287.662H232.667C217.613 287.662 205.409 299.867 205.409 314.921V314.921C205.409 343.134 228.279 366.005 256.492 366.005H284.007C286.651 366.005 289.247 365.804 291.783 365.417C289.388 362.449 287.827 359.203 287.45 355.66C286.613 347.806 292.246 344.752 290.783 337.882Z" fill="#D8DEE8"/>
<path d="M270.928 294.442C294.927 294.442 314.383 292.086 314.383 289.18C314.383 286.275 294.927 283.919 270.928 283.919C246.928 283.919 227.473 286.275 227.473 289.18C227.473 292.086 246.928 294.442 270.928 294.442Z" fill="#D8DEE8"/>
<path d="M444.345 25.8953L338.233 23.5931C330.667 23.5022 324.563 29.6268 324.607 37.2679L325.16 132.508C325.204 140.082 331.346 146.232 338.873 146.249L344.596 146.262L344.712 169.688C344.729 173.194 348.947 174.907 352.412 171.023L374.057 146.328L444.426 146.044C451.14 146.058 456.575 140.283 456.574 133.142L456.56 39.0919C456.559 31.8881 451.094 25.9779 444.345 25.8953Z" fill="url(#paint10_linear_65_404)"/>
<path d="M447.867 143.469L342.118 143.744C334.578 143.732 328.425 137.579 328.382 129.997L327.843 34.6549C327.799 27.0055 333.916 20.8701 341.496 20.9558L447.804 23.1873C454.565 23.2655 460.039 29.1783 460.039 36.3902V130.544C460.039 137.694 454.593 143.479 447.867 143.469Z" fill="url(#paint11_linear_65_404)"/>
<path d="M332.29 132.51L331.739 32.1708C331.717 28.0954 334.975 24.8266 339.014 24.871L450.038 26.9379C453.64 26.9782 456.559 30.1286 456.559 33.9733L456.574 132.896C456.574 136.708 453.671 139.791 450.086 139.784L339.61 139.836C335.591 139.829 332.313 136.549 332.29 132.51Z" fill="url(#paint12_linear_65_404)"/>
<path d="M347.964 167.204L347.828 138.923L381.586 138.989L354.618 169.73C352.313 172.357 347.981 170.714 347.964 167.204Z" fill="url(#paint13_linear_65_404)"/>
<path d="M375.318 83.2789C375.333 87.5848 371.669 91.0726 367.126 91.0703C362.578 91.0682 358.87 87.5677 358.851 83.2504C358.833 78.9316 362.512 75.4401 367.064 75.4537C371.609 75.4673 375.302 78.9714 375.318 83.2789Z" fill="white"/>
<path d="M403.27 83.3271C403.28 87.6136 399.644 91.0856 395.143 91.0833C390.636 91.0812 386.966 87.5966 386.952 83.2988C386.939 78.9995 390.589 75.5238 395.1 75.5374C399.604 75.551 403.259 79.0391 403.27 83.3271Z" fill="white"/>
<path d="M430.97 83.3749C430.975 87.6419 427.368 91.0984 422.908 91.0963C418.44 91.0942 414.808 87.6255 414.799 83.347C414.791 79.067 418.413 75.6072 422.883 75.6204C427.347 75.6338 430.965 79.1062 430.97 83.3749Z" fill="white"/>
<path d="M100.317 518.441C98.9198 520.669 99.1374 521.712 99.3777 522.186C100.082 523.576 102.233 522.558 107.448 523.735C108.06 523.873 109.225 524.156 110.737 523.963C112.032 523.798 113.592 523.281 113.564 522.936C113.553 522.81 113.334 522.737 113.251 522.71C111.818 522.245 102.938 518.47 102.938 518.47L100.317 518.441Z" fill="url(#paint14_linear_65_404)"/>
<path d="M100.152 513.205L100.422 518.54C100.422 518.54 102.511 520.37 103.305 518.497C103.877 517.15 104.257 513.397 104.257 513.397L100.152 513.205Z" fill="url(#paint15_linear_65_404)"/>
<path d="M126.505 518.587L123.66 524.4L120.497 523.551L121.827 518.032L126.505 518.587Z" fill="url(#paint16_linear_65_404)"/>
<path d="M122.31 527.624C120.946 525.614 119.538 525.636 119.391 524.337C119.274 523.316 120.013 522.157 120.984 521.788C122.348 521.271 123.81 522.455 124.141 522.722C126.385 524.539 125.473 526.919 127.633 528.218C128.068 528.479 128.769 528.782 129.457 529.577C129.75 529.915 130.474 530.751 130.232 531.249C129.951 531.826 128.522 531.656 127.163 531.494C125.532 531.299 124.716 531.203 123.982 530.63C122.964 529.837 123.363 529.176 122.31 527.624Z" fill="url(#paint17_linear_65_404)"/>
<path d="M96.0645 385.839C95.3832 398.112 96.0421 408.718 97.1425 417.423C98.3266 426.787 99.3288 428.472 99.4086 434.886C99.5818 448.843 94.9546 450.456 92.8376 466.04C90.5 483.249 93.9571 497.367 95.3295 502.757C96.5293 507.468 97.8761 511.305 98.9065 513.977C100.377 515.49 102.843 515.16 105.441 514.853C107.682 499.254 110.078 484.598 112.319 468.999C117.308 445.668 122.298 422.337 127.288 399.005C116.88 394.616 106.472 390.228 96.0645 385.839Z" fill="url(#paint18_linear_65_404)"/>
<path opacity="0.3" d="M105.441 514.853C107.682 499.254 110.078 484.598 112.319 468.999C117.308 445.668 122.298 422.337 127.288 399.005C116.88 394.616 106.472 390.228 96.0644 385.839C96.0195 386.651 95.9952 387.437 95.9614 388.235C109.89 402.514 111.972 413.083 111.241 420.114C110.356 428.641 105.334 432.488 105.22 444.949C105.138 453.859 107.671 455.64 107.008 463.63C106.153 473.92 101.257 479.34 98.6133 485.107C96.0581 490.682 94.6436 498.761 97.6998 510.671C98.128 511.91 98.5378 513.022 98.9064 513.977C100.377 515.49 102.843 515.161 105.441 514.853Z" fill="url(#paint19_linear_65_404)"/>
<path d="M114.028 399.204C120.793 413.136 124.294 423.952 126.131 430.603C127.251 434.661 128.222 438.871 128.082 444.275C127.91 450.896 126.151 456.202 124.727 459.575C122.705 463.88 120.781 468.937 119.359 474.711C114.745 493.439 117.874 509.69 120.594 519.112C122.437 519.973 124.28 520.836 126.123 521.697C131.428 510.007 138.12 493.354 143.654 472.592C146.677 461.252 149.006 452.356 149.971 440.89C150.99 428.796 150.855 409.522 142.854 385.844C133.245 390.297 123.636 394.751 114.028 399.204Z" fill="url(#paint20_linear_65_404)"/>
<path d="M127.1 294.871C139.019 297.95 148.045 300.875 151.63 307.548C155.416 314.596 148.097 319.059 145.005 333.579C140.269 355.808 152.491 365.272 146.899 387.587C145.015 395.105 141.934 400.786 139.86 404.141C135.689 407.004 129.118 410.838 120.449 413.087C107.833 416.36 101.992 413.365 85.4185 412.941C58.3098 412.246 53.6215 419.736 41.8306 413.914C29.9143 408.029 22.0868 394.149 25.1651 388.75C27.0088 385.517 31.771 388.026 39.1928 384.484C48.7578 379.919 47.8272 372.53 55.7465 366.913C67.1212 358.846 76.6007 368.731 86.34 361.704C96.192 354.595 98.8766 335.544 95.9109 323.824C93.9737 316.17 94.5972 308.072 93.3349 300.277C93.2297 299.63 93.1896 298.607 93.6792 297.492C95.5507 293.228 103.652 293.051 109.772 292.975C119.105 292.857 126.12 294.618 127.1 294.871Z" fill="url(#paint21_linear_65_404)"/>
<path opacity="0.3" d="M43.9526 405.511C47.8943 403.331 46.4563 396.107 52.2994 392.819C57.7226 389.768 61.3506 394.647 69.1108 392.954C79.0639 390.783 79.331 381.395 88.8805 379.184C95.7471 377.594 97.4113 382.031 107.044 383.015C116.66 383.998 129.616 381.069 138.458 371.522C142.215 367.465 144.497 362.994 145.884 358.801C147.77 367.335 149.9 375.61 146.899 387.587C145.015 395.105 141.934 400.786 139.86 404.141C135.688 407.004 129.118 410.838 120.449 413.087C107.833 416.359 101.992 413.365 85.4183 412.941C58.3096 412.246 53.6213 419.736 41.8304 413.914C34.2148 410.153 28.2862 403.132 25.7903 397.14C35.8113 405.781 41.092 407.093 43.9526 405.511Z" fill="url(#paint22_linear_65_404)"/>
<path d="M135.819 274.525C135.819 274.525 138.632 281.056 138.478 285.463C138.325 289.869 133.398 289.139 133.398 289.139L133.355 291.923C133.317 294.3 134.682 296.476 136.837 297.478L138.733 298.359C138.733 298.359 125.75 300.033 119.192 294.534L121.216 294.504C124.081 294.461 126.52 292.405 127.045 289.587L127.264 288.412C127.264 288.412 126.186 274.548 135.819 274.525Z" fill="url(#paint23_linear_65_404)"/>
<path d="M148.828 345.817L168.24 312.333C168.479 311.919 168.961 311.711 169.426 311.82L196.585 318.167C197.31 318.336 197.654 319.169 197.259 319.8L174.734 355.819C174.463 356.252 173.925 356.438 173.444 356.264L149.574 347.643L148.828 345.817Z" fill="url(#paint24_linear_65_404)"/>
<path d="M153.603 342.017L169.321 314.905C169.515 314.57 169.905 314.401 170.282 314.489L192.272 319.628C192.86 319.766 193.138 320.44 192.818 320.951L174.579 350.115C174.359 350.466 173.924 350.616 173.535 350.475L154.207 343.496L153.603 342.017Z" fill="url(#paint25_linear_65_404)"/>
<path d="M173.959 315.216L175.208 313.041C175.381 312.739 175.731 312.585 176.071 312.661L187.383 315.205C187.908 315.323 188.166 315.919 187.894 316.383L186.506 318.747C186.328 319.05 185.973 319.2 185.631 319.117L174.46 316.383C173.946 316.257 173.696 315.674 173.959 315.216Z" fill="url(#paint26_linear_65_404)"/>
<path d="M188.775 324.539C188.758 324.537 188.741 324.533 188.723 324.529L168.809 319.83C168.563 319.772 168.41 319.525 168.468 319.279C168.527 319.032 168.782 318.883 169.02 318.938L188.934 323.638C189.18 323.696 189.333 323.943 189.275 324.189C189.221 324.419 189.003 324.566 188.775 324.539Z" fill="white"/>
<path d="M187.527 326.469C187.508 326.467 187.489 326.463 187.47 326.459L167.678 321.573C167.432 321.514 167.282 321.265 167.343 321.018C167.403 320.772 167.649 320.623 167.897 320.683L187.689 325.568C187.936 325.628 188.085 325.877 188.024 326.124C187.969 326.35 187.752 326.496 187.527 326.469Z" fill="white"/>
<path d="M177.087 328.617C177.064 328.614 177.041 328.61 177.018 328.604L166.258 325.635C166.013 325.568 165.87 325.315 165.937 325.07C166.004 324.827 166.261 324.683 166.501 324.751L177.262 327.72C177.506 327.787 177.649 328.04 177.582 328.285C177.521 328.504 177.307 328.643 177.087 328.617Z" fill="white"/>
<path d="M180.247 347.003C180.247 347.003 185.05 344.422 185.798 342.326C186.546 340.23 186.838 336.17 186.838 336.17L183.628 341.597C183.628 341.597 182.403 341.103 182.055 339.168C181.707 337.232 180.607 338.857 180.83 340.315C181.053 341.772 180.247 347.003 180.247 347.003Z" fill="url(#paint27_linear_65_404)"/>
<path d="M149.706 305.203C151.924 306.894 155.231 309.8 157.961 314.217C165.728 326.783 160.932 338.804 167.904 343.962C169.897 345.437 173.521 346.844 180.503 345.167L182.941 346.809C182.941 346.809 184.417 363.173 164.884 361.738C145.351 360.303 138.18 335.083 138.18 335.083L149.706 305.203Z" fill="url(#paint28_linear_65_404)"/>
<path d="M133.31 280.58C132.655 280.47 132.18 279.589 131.708 279.8C131.212 280.021 131.164 281.244 131.505 282.134C131.784 282.863 132.302 283.305 132.594 283.516C132.026 284.178 131.287 285.22 130.898 286.631C130.038 289.752 131.512 292.442 132.089 293.992C134.691 300.981 128.894 311.209 123.054 316.133C118.308 320.135 116.408 318.21 113.495 321.559C107.825 328.076 114.224 336.287 110.816 345.41C105.632 359.281 82.8545 361.647 81.9113 361.734C81.5396 361.768 81.2903 361.788 80.904 361.817C70.7108 362.581 55.2615 363.74 45.2072 354.592C37.6847 347.748 34.8912 336.69 36.2849 327.269C36.6512 324.791 38.19 315.397 46.5355 308.317C47.8599 307.194 55.7024 300.557 65.4964 301.28C70.6837 301.663 71.5777 303.576 75.6355 302.776C81.1908 301.679 84.943 297.022 87.2708 294.134C91.5522 288.82 90.1017 287.489 93.0756 284.947C98.903 279.968 104.859 284.751 111 280.44C117.053 276.19 114.168 269.504 119.972 265.872C125.959 262.127 136.622 264.492 138.505 269.699C140.123 274.174 135.318 280.914 133.31 280.58Z" fill="url(#paint29_linear_65_404)"/>
<path d="M108.276 101.645L112.968 101.619C112.968 101.619 124.208 87.4002 131.803 86.6142L132.506 46.5544C103.417 46.6517 77.7447 63.0412 66.053 87.2648L108.276 101.645Z" fill="url(#paint30_linear_65_404)"/>
<path d="M164.393 119.398C162.008 132.56 150.018 142.909 135.328 143.365C131.712 143.478 127.495 141.311 127.495 141.311C127.495 141.311 123.628 141.523 122.965 141.265L100.036 176.767C110.694 181.578 122.734 183.935 135.328 183.212C171.953 181.107 200.748 153.537 203.946 120.346L164.393 119.398Z" fill="url(#paint31_linear_65_404)"/>
<path d="M92.859 173.032L97.4463 173.191L115.999 137.426C109.077 132.301 104.629 124.326 104.629 115.281C104.629 113.095 104.891 110.964 105.384 108.913L67.5961 94.6517L63.0001 94.7054C60.7237 101.379 59.4944 108.479 59.4944 115.835C59.4944 140.191 72.8585 161.162 92.859 173.032Z" fill="url(#paint32_linear_65_404)"/>
<path d="M139.82 86.7886C153.197 88.7792 163.483 99.1456 164.705 111.957L229.384 113.831C229.384 113.818 229.384 113.804 229.384 113.79C229.384 113.79 229.384 113.769 229.384 113.749C229.385 113.701 239.135 112.181 239.135 112.175C239.132 111.732 150.779 18.8572 150.779 18.8572L140.979 20.4675C140.979 20.4675 140.206 64.6817 139.82 86.7886Z" fill="url(#paint33_linear_65_404)"/>
<path d="M112.904 101.645C117.589 93.4494 126.304 87.6622 136.431 86.6144L137.134 46.5546C108.045 46.6519 82.3727 63.0414 70.681 87.265L112.904 101.645Z" fill="url(#paint34_linear_65_404)"/>
<path d="M169.021 119.398C166.636 132.56 154.646 142.909 139.956 143.365C135.576 143.501 131.391 142.745 127.594 141.265L104.664 176.767C115.322 181.578 127.362 183.935 139.956 183.212C176.581 181.107 205.376 153.537 208.574 120.346L169.021 119.398Z" fill="url(#paint35_linear_65_404)"/>
<path d="M97.487 173.032L120.627 137.426C113.705 132.301 109.257 124.326 109.257 115.281C109.257 113.095 109.519 110.964 110.013 108.913L67.6281 94.7056C65.3517 101.379 64.1225 108.479 64.1225 115.835C64.1225 140.191 77.4866 161.162 97.487 173.032Z" fill="url(#paint36_linear_65_404)"/>
<path d="M149.571 85.0995C162.948 87.0901 173.234 97.4566 174.456 110.268L239.135 112.142C239.135 112.115 239.135 112.087 239.135 112.06C239.135 64.6115 201.33 24.0054 150.73 18.7784L149.571 85.0995Z" fill="url(#paint37_linear_65_404)"/>
<g opacity="0.3">
<path d="M131.113 142.396C129.909 142.087 128.733 141.71 127.594 141.265L104.664 176.767C115.322 181.578 127.362 183.935 139.956 183.212C150.132 182.627 159.701 180.074 168.287 175.984C159.62 174.671 151.883 171.384 145.704 165.907C138.665 159.667 134.1 150.987 131.113 142.396Z" fill="url(#paint38_linear_65_404)"/>
</g>
<g opacity="0.3">
<path d="M123.416 62.455C120.693 57.4333 116.799 53.6273 112.431 50.7197C94.0477 57.0626 78.9052 70.2255 70.681 87.265L112.904 101.645C115.835 96.5166 120.345 92.3316 125.791 89.6606C126.892 79.002 128.14 71.1672 123.416 62.455Z" fill="url(#paint39_linear_65_404)"/>
</g>
<path d="M373.617 397.992L191.644 399.54C188.45 399.567 185.768 402.314 185.768 405.675V412.442V416.05V513.687C185.768 517.049 188.464 519.614 191.659 519.418L194.299 519.256L197.432 512.728L375.645 501.798C378.341 501.632 378.463 505.468 378.463 502.391V413.017V409.715V403.521C378.464 400.444 376.313 397.969 373.617 397.992Z" fill="url(#paint40_linear_65_404)"/>
<path d="M381.094 409.714V502.392C381.094 505.233 379.302 507.686 376.895 508.179C376.691 508.225 376.518 508.251 376.308 508.265L194.308 519.419C191.112 519.616 188.398 517.051 188.398 513.69V412.443L381.094 409.714Z" fill="white"/>
<path d="M376.342 397.992L194.454 399.54C191.259 399.567 188.663 402.314 188.663 405.675V416.05L381.217 413.017V403.521C381.218 400.444 379.037 397.969 376.342 397.992Z" fill="url(#paint41_linear_65_404)"/>
<path d="M201.925 407.546C201.925 409.032 200.782 410.252 199.371 410.271C197.958 410.289 196.811 409.097 196.811 407.608C196.811 406.119 197.958 404.9 199.371 404.884C200.782 404.869 201.925 406.061 201.925 407.546Z" fill="white"/>
<path opacity="0.2" d="M228.29 504.271L213.869 505.071V429.924L228.29 429.606V504.271Z" fill="url(#paint42_linear_65_404)"/>
<path d="M228.29 504.271L213.869 505.071V469.393L228.29 468.822V504.271Z" fill="url(#paint43_linear_65_404)"/>
<path opacity="0.2" d="M248.049 503.174L233.883 503.961V429.482L248.049 429.169V503.174Z" fill="url(#paint44_linear_65_404)"/>
<path d="M248.049 503.174L233.883 503.961V486.28L248.049 485.606V503.174Z" fill="url(#paint45_linear_65_404)"/>
<path opacity="0.2" d="M267.463 502.097L253.544 502.87V429.048L267.463 428.74V502.097Z" fill="url(#paint46_linear_65_404)"/>
<path d="M267.463 502.097L253.544 502.87V493.669L267.463 492.955V502.097Z" fill="url(#paint47_linear_65_404)"/>
<path opacity="0.2" d="M286.539 501.039L272.861 501.798V428.621L286.539 428.319V501.039Z" fill="url(#paint48_linear_65_404)"/>
<path d="M286.539 501.039L272.861 501.798V444.472L286.539 444.071V501.039Z" fill="url(#paint49_linear_65_404)"/>
<path opacity="0.2" d="M305.286 499.998L291.844 500.744V428.202L305.286 427.905V499.998Z" fill="url(#paint50_linear_65_404)"/>
<path d="M305.286 499.998L291.844 500.744V450.374L305.286 449.939V499.998Z" fill="url(#paint51_linear_65_404)"/>
<path opacity="0.2" d="M323.713 498.976L310.501 499.709V427.79L323.713 427.498V498.976Z" fill="url(#paint52_linear_65_404)"/>
<path d="M323.713 498.976L310.501 499.709V438.247L323.713 437.891V498.976Z" fill="url(#paint53_linear_65_404)"/>
<path opacity="0.2" d="M341.829 497.971L328.839 498.691V427.384L341.829 427.097V497.971Z" fill="url(#paint54_linear_65_404)"/>
<path d="M341.829 497.971L328.839 498.691V454.892L341.829 454.437V497.971Z" fill="url(#paint55_linear_65_404)"/>
<path opacity="0.2" d="M359.64 496.982L346.868 497.691V426.986L359.64 426.704V496.982Z" fill="url(#paint56_linear_65_404)"/>
<path d="M359.64 496.982L346.868 497.691V473.144L359.64 472.583V496.982Z" fill="url(#paint57_linear_65_404)"/>
<path opacity="0.4" d="M376.957 508.179C376.754 508.225 376.55 508.251 376.339 508.265L194.324 519.419C191.128 519.616 188.399 517.051 188.399 513.69V417.481C190.372 422.742 195.383 432.489 213.739 434.212C216.902 434.514 220.519 434.574 224.505 434.33C225.761 434.251 227.037 434.205 228.26 434.185C230.167 434.146 232.045 434.172 233.867 434.264C238.911 434.508 243.654 435.218 248.041 436.33C249.941 436.81 251.78 437.369 253.543 438C258.778 439.861 263.443 442.341 267.461 445.32C269.415 446.767 271.218 448.332 272.862 449.996C280.076 457.289 284.279 466.549 284.937 476.565C285.049 478.255 285.602 479.676 286.542 480.866C287.733 482.379 289.541 483.523 291.843 484.404C295.342 485.746 299.972 486.463 305.286 486.897C306.963 487.035 308.706 487.14 310.501 487.232C314.677 487.443 319.143 487.561 323.713 487.713C325.41 487.772 327.127 487.831 328.843 487.91C333.19 488.101 337.57 488.37 341.832 488.831C343.536 489.015 345.212 489.225 346.87 489.482C351.407 490.172 355.729 491.139 359.641 492.54C367.783 495.46 374.149 500.228 376.957 508.179Z" fill="#D8DEE8"/>
<defs>
<linearGradient id="paint0_linear_65_404" x1="24.6294" y1="338.338" x2="228.908" y2="338.338" gradientUnits="userSpaceOnUse">
<stop offset="0.0036" stop-color="#E38DDD"/>
<stop offset="1" stop-color="#9571F6"/>
</linearGradient>
<linearGradient id="paint1_linear_65_404" x1="424.057" y1="242.532" x2="335.277" y2="633.163" gradientUnits="userSpaceOnUse">
<stop offset="0.0036" stop-color="#E38DDD"/>
<stop offset="1" stop-color="#9571F6"/>
</linearGradient>
<linearGradient id="paint2_linear_65_404" x1="116.021" y1="136.663" x2="393.223" y2="442.124" gradientUnits="userSpaceOnUse">
<stop offset="0.0036" stop-color="#26264F"/>
<stop offset="1" stop-color="#444B8C"/>
</linearGradient>
<linearGradient id="paint3_linear_65_404" x1="112.415" y1="284.561" x2="460.782" y2="274.854" gradientUnits="userSpaceOnUse">
<stop stop-color="#444B8C"/>
<stop offset="0.9964" stop-color="#26264F"/>
</linearGradient>
<linearGradient id="paint4_linear_65_404" x1="358.96" y1="367.421" x2="148.044" y2="194.853" gradientUnits="userSpaceOnUse">
<stop stop-color="#444B8C"/>
<stop offset="0.9964" stop-color="#26264F"/>
</linearGradient>
<linearGradient id="paint5_linear_65_404" x1="417.152" y1="486.558" x2="161.942" y2="141.65" gradientUnits="userSpaceOnUse">
<stop stop-color="#AA80F9"/>
<stop offset="0.9964" stop-color="#6165D7"/>
</linearGradient>
<linearGradient id="paint6_linear_65_404" x1="333.529" y1="526.475" x2="87.2171" y2="193.593" gradientUnits="userSpaceOnUse">
<stop stop-color="#AA80F9"/>
<stop offset="0.9964" stop-color="#6165D7"/>
</linearGradient>
<linearGradient id="paint7_linear_65_404" x1="271.953" y1="455.302" x2="266.193" y2="499.169" gradientUnits="userSpaceOnUse">
<stop stop-color="#444B8C"/>
<stop offset="0.9964" stop-color="#26264F"/>
</linearGradient>
<linearGradient id="paint8_linear_65_404" x1="267.929" y1="75.2413" x2="271.191" y2="78.8363" gradientUnits="userSpaceOnUse">
<stop stop-color="#FF9085"/>
<stop offset="1" stop-color="#FB6FBB"/>
</linearGradient>
<linearGradient id="paint9_linear_65_404" x1="229.446" y1="236.61" x2="347.529" y2="236.61" gradientUnits="userSpaceOnUse">
<stop stop-color="#444B8C"/>
<stop offset="0.9964" stop-color="#26264F"/>
</linearGradient>
<linearGradient id="paint10_linear_65_404" x1="282.131" y1="224.421" x2="737.264" y2="-360.11" gradientUnits="userSpaceOnUse">
<stop stop-color="#AB316D"/>
<stop offset="1" stop-color="#792D3D"/>
</linearGradient>
<linearGradient id="paint11_linear_65_404" x1="324.639" y1="171.525" x2="407.606" y2="64.9705" gradientUnits="userSpaceOnUse">
<stop stop-color="#FCB148"/>
<stop offset="0.0521" stop-color="#FDBA46"/>
<stop offset="0.1424" stop-color="#FFC244"/>
<stop offset="0.3183" stop-color="#FFC444"/>
<stop offset="0.4849" stop-color="#FDB946"/>
<stop offset="0.7754" stop-color="#F99C4D"/>
<stop offset="0.8658" stop-color="#F8924F"/>
<stop offset="1" stop-color="#F8924F"/>
</linearGradient>
<linearGradient id="paint12_linear_65_404" x1="414.236" y1="133.606" x2="362.219" y2="1.30218" gradientUnits="userSpaceOnUse">
<stop stop-color="#FCB148"/>
<stop offset="0.0521" stop-color="#FDBA46"/>
<stop offset="0.1424" stop-color="#FFC244"/>
<stop offset="0.3183" stop-color="#FFC444"/>
<stop offset="0.4849" stop-color="#FDB946"/>
<stop offset="0.7754" stop-color="#F99C4D"/>
<stop offset="0.8658" stop-color="#F8924F"/>
<stop offset="1" stop-color="#F8924F"/>
</linearGradient>
<linearGradient id="paint13_linear_65_404" x1="331.536" y1="181.558" x2="444.735" y2="36.1757" gradientUnits="userSpaceOnUse">
<stop stop-color="#FCB148"/>
<stop offset="0.0521" stop-color="#FDBA46"/>
<stop offset="0.1424" stop-color="#FFC244"/>
<stop offset="0.3183" stop-color="#FFC444"/>
<stop offset="0.4849" stop-color="#FDB946"/>
<stop offset="0.7754" stop-color="#F99C4D"/>
<stop offset="0.8658" stop-color="#F8924F"/>
<stop offset="1" stop-color="#F8924F"/>
</linearGradient>
<linearGradient id="paint14_linear_65_404" x1="109.135" y1="537.687" x2="102.293" y2="499.321" gradientUnits="userSpaceOnUse">
<stop stop-color="#444B8C"/>
<stop offset="0.9964" stop-color="#26264F"/>
</linearGradient>
<linearGradient id="paint15_linear_65_404" x1="100.307" y1="529.328" x2="107.359" y2="469.829" gradientUnits="userSpaceOnUse">
<stop stop-color="#FFC444"/>
<stop offset="0.9964" stop-color="#F36F56"/>
</linearGradient>
<linearGradient id="paint16_linear_65_404" x1="122.214" y1="531.924" x2="129.267" y2="472.425" gradientUnits="userSpaceOnUse">
<stop stop-color="#FFC444"/>
<stop offset="0.9964" stop-color="#F36F56"/>
</linearGradient>
<linearGradient id="paint17_linear_65_404" x1="126.085" y1="534.664" x2="119.243" y2="496.298" gradientUnits="userSpaceOnUse">
<stop stop-color="#444B8C"/>
<stop offset="0.9964" stop-color="#26264F"/>
</linearGradient>
<linearGradient id="paint18_linear_65_404" x1="110.38" y1="400.332" x2="90.3436" y2="522.628" gradientUnits="userSpaceOnUse">
<stop stop-color="#311944"/>
<stop offset="1" stop-color="#893976"/>
</linearGradient>
<linearGradient id="paint19_linear_65_404" x1="110.38" y1="400.332" x2="90.3435" y2="522.628" gradientUnits="userSpaceOnUse">
<stop stop-color="#311944"/>
<stop offset="1" stop-color="#893976"/>
</linearGradient>
<linearGradient id="paint20_linear_65_404" x1="187.479" y1="462.507" x2="87.8417" y2="446.079" gradientUnits="userSpaceOnUse">
<stop stop-color="#311944"/>
<stop offset="1" stop-color="#893976"/>
</linearGradient>
<linearGradient id="paint21_linear_65_404" x1="36.102" y1="471.181" x2="125.127" y2="327.818" gradientUnits="userSpaceOnUse">
<stop offset="0.494" stop-color="#EBEFF2"/>
<stop offset="1" stop-color="white"/>
</linearGradient>
<linearGradient id="paint22_linear_65_404" x1="25.7906" y1="387.473" x2="148.396" y2="387.473" gradientUnits="userSpaceOnUse">
<stop stop-color="#AA80F9"/>
<stop offset="0.9964" stop-color="#6165D7"/>
</linearGradient>
<linearGradient id="paint23_linear_65_404" x1="137.718" y1="283.551" x2="122.447" y2="302.761" gradientUnits="userSpaceOnUse">
<stop stop-color="#FFC444"/>
<stop offset="0.9964" stop-color="#F36F56"/>
</linearGradient>
<linearGradient id="paint24_linear_65_404" x1="181.639" y1="321.301" x2="150.857" y2="360.022" gradientUnits="userSpaceOnUse">
<stop stop-color="#444B8C"/>
<stop offset="0.9964" stop-color="#26264F"/>
</linearGradient>
<linearGradient id="paint25_linear_65_404" x1="178.975" y1="322.097" x2="152.241" y2="361.718" gradientUnits="userSpaceOnUse">
<stop stop-color="#FFC444"/>
<stop offset="0.9964" stop-color="#F36F56"/>
</linearGradient>
<linearGradient id="paint26_linear_65_404" x1="179.318" y1="318.308" x2="186.977" y2="306.287" gradientUnits="userSpaceOnUse">
<stop stop-color="#AA80F9"/>
<stop offset="0.9964" stop-color="#6165D7"/>
</linearGradient>
<linearGradient id="paint27_linear_65_404" x1="185.146" y1="338.461" x2="177.76" y2="347.752" gradientUnits="userSpaceOnUse">
<stop stop-color="#FFC444"/>
<stop offset="0.9964" stop-color="#F36F56"/>
</linearGradient>
<linearGradient id="paint28_linear_65_404" x1="66.2145" y1="489.877" x2="155.238" y2="346.517" gradientUnits="userSpaceOnUse">
<stop offset="0.494" stop-color="#EBEFF2"/>
<stop offset="1" stop-color="white"/>
</linearGradient>
<linearGradient id="paint29_linear_65_404" x1="62.2409" y1="368.196" x2="90.4409" y2="298.151" gradientUnits="userSpaceOnUse">
<stop stop-color="#444B8C"/>
<stop offset="0.9964" stop-color="#26264F"/>
</linearGradient>
<linearGradient id="paint30_linear_65_404" x1="96.3345" y1="40.2845" x2="110.77" y2="170.779" gradientUnits="userSpaceOnUse">
<stop stop-color="#311944"/>
<stop offset="1" stop-color="#893976"/>
</linearGradient>
<linearGradient id="paint31_linear_65_404" x1="149.373" y1="143.269" x2="205.691" y2="257.021" gradientUnits="userSpaceOnUse">
<stop stop-color="#311944"/>
<stop offset="1" stop-color="#893976"/>
</linearGradient>
<linearGradient id="paint32_linear_65_404" x1="60.6839" y1="95.5443" x2="143.243" y2="201.692" gradientUnits="userSpaceOnUse">
<stop stop-color="#311944"/>
<stop offset="1" stop-color="#893976"/>
</linearGradient>
<linearGradient id="paint33_linear_65_404" x1="222.096" y1="21.6427" x2="167.109" y2="98.3219" gradientUnits="userSpaceOnUse">
<stop stop-color="#311944"/>
<stop offset="1" stop-color="#893976"/>
</linearGradient>
<linearGradient id="paint34_linear_65_404" x1="100.972" y1="40.3743" x2="115.274" y2="169.662" gradientUnits="userSpaceOnUse">
<stop stop-color="#FFC444"/>
<stop offset="0.9964" stop-color="#F36F56"/>
</linearGradient>
<linearGradient id="paint35_linear_65_404" x1="154.001" y1="143.269" x2="210.32" y2="257.021" gradientUnits="userSpaceOnUse">
<stop offset="0.0036" stop-color="#E38DDD"/>
<stop offset="1" stop-color="#9571F6"/>
</linearGradient>
<linearGradient id="paint36_linear_65_404" x1="65.3285" y1="95.5655" x2="144.966" y2="197.956" gradientUnits="userSpaceOnUse">
<stop stop-color="#AA80F9"/>
<stop offset="0.9964" stop-color="#6165D7"/>
</linearGradient>
<linearGradient id="paint37_linear_65_404" x1="235.072" y1="9.48564" x2="174.74" y2="93.6191" gradientUnits="userSpaceOnUse">
<stop stop-color="#FF9085"/>
<stop offset="1" stop-color="#FB6FBB"/>
</linearGradient>
<linearGradient id="paint38_linear_65_404" x1="127.12" y1="157.479" x2="182.238" y2="268.806" gradientUnits="userSpaceOnUse">
<stop offset="0.0036" stop-color="#E38DDD"/>
<stop offset="1" stop-color="#9571F6"/>
</linearGradient>
<linearGradient id="paint39_linear_65_404" x1="94.3578" y1="41.2355" x2="108.63" y2="170.256" gradientUnits="userSpaceOnUse">
<stop stop-color="#FFC444"/>
<stop offset="0.9964" stop-color="#F36F56"/>
</linearGradient>
<linearGradient id="paint40_linear_65_404" x1="317.154" y1="344.706" x2="230.997" y2="613.576" gradientUnits="userSpaceOnUse">
<stop stop-color="#311944"/>
<stop offset="1" stop-color="#893976"/>
</linearGradient>
<linearGradient id="paint41_linear_65_404" x1="300.79" y1="382.538" x2="214.68" y2="523.31" gradientUnits="userSpaceOnUse">
<stop stop-color="#FF9085"/>
<stop offset="1" stop-color="#FB6FBB"/>
</linearGradient>
<linearGradient id="paint42_linear_65_404" x1="213.869" y1="467.339" x2="228.29" y2="467.339" gradientUnits="userSpaceOnUse">
<stop stop-color="#FF9085"/>
<stop offset="1" stop-color="#FB6FBB"/>
</linearGradient>
<linearGradient id="paint43_linear_65_404" x1="229.288" y1="461.218" x2="209.763" y2="522.147" gradientUnits="userSpaceOnUse">
<stop stop-color="#FF9085"/>
<stop offset="1" stop-color="#FB6FBB"/>
</linearGradient>
<linearGradient id="paint44_linear_65_404" x1="233.883" y1="466.565" x2="248.05" y2="466.565" gradientUnits="userSpaceOnUse">
<stop stop-color="#FF9085"/>
<stop offset="1" stop-color="#FB6FBB"/>
</linearGradient>
<linearGradient id="paint45_linear_65_404" x1="245.566" y1="480.372" x2="234.63" y2="514.502" gradientUnits="userSpaceOnUse">
<stop stop-color="#FF9085"/>
<stop offset="1" stop-color="#FB6FBB"/>
</linearGradient>
<linearGradient id="paint46_linear_65_404" x1="253.544" y1="465.805" x2="267.463" y2="465.805" gradientUnits="userSpaceOnUse">
<stop stop-color="#FF9085"/>
<stop offset="1" stop-color="#FB6FBB"/>
</linearGradient>
<linearGradient id="paint47_linear_65_404" x1="263.393" y1="488.864" x2="256.526" y2="510.294" gradientUnits="userSpaceOnUse">
<stop stop-color="#FF9085"/>
<stop offset="1" stop-color="#FB6FBB"/>
</linearGradient>
<linearGradient id="paint48_linear_65_404" x1="272.862" y1="465.058" x2="286.539" y2="465.058" gradientUnits="userSpaceOnUse">
<stop stop-color="#FF9085"/>
<stop offset="1" stop-color="#FB6FBB"/>
</linearGradient>
<linearGradient id="paint49_linear_65_404" x1="292.172" y1="433.835" x2="262.502" y2="526.427" gradientUnits="userSpaceOnUse">
<stop stop-color="#FF9085"/>
<stop offset="1" stop-color="#FB6FBB"/>
</linearGradient>
<linearGradient id="paint50_linear_65_404" x1="291.844" y1="464.325" x2="305.286" y2="464.325" gradientUnits="userSpaceOnUse">
<stop stop-color="#FF9085"/>
<stop offset="1" stop-color="#FB6FBB"/>
</linearGradient>
<linearGradient id="paint51_linear_65_404" x1="309.633" y1="440.648" x2="283.305" y2="522.808" gradientUnits="userSpaceOnUse">
<stop stop-color="#FF9085"/>
<stop offset="1" stop-color="#FB6FBB"/>
</linearGradient>
<linearGradient id="paint52_linear_65_404" x1="310.501" y1="463.603" x2="323.713" y2="463.603" gradientUnits="userSpaceOnUse">
<stop stop-color="#FF9085"/>
<stop offset="1" stop-color="#FB6FBB"/>
</linearGradient>
<linearGradient id="paint53_linear_65_404" x1="330.371" y1="427.219" x2="298.817" y2="525.688" gradientUnits="userSpaceOnUse">
<stop stop-color="#FF9085"/>
<stop offset="1" stop-color="#FB6FBB"/>
</linearGradient>
<linearGradient id="paint54_linear_65_404" x1="328.839" y1="462.894" x2="341.829" y2="462.894" gradientUnits="userSpaceOnUse">
<stop stop-color="#FF9085"/>
<stop offset="1" stop-color="#FB6FBB"/>
</linearGradient>
<linearGradient id="paint55_linear_65_404" x1="345.058" y1="446.086" x2="321.929" y2="518.264" gradientUnits="userSpaceOnUse">
<stop stop-color="#FF9085"/>
<stop offset="1" stop-color="#FB6FBB"/>
</linearGradient>
<linearGradient id="paint56_linear_65_404" x1="346.868" y1="462.198" x2="359.64" y2="462.198" gradientUnits="userSpaceOnUse">
<stop stop-color="#FF9085"/>
<stop offset="1" stop-color="#FB6FBB"/>
</linearGradient>
<linearGradient id="paint57_linear_65_404" x1="359.121" y1="466.756" x2="345.171" y2="510.287" gradientUnits="userSpaceOnUse">
<stop stop-color="#FF9085"/>
<stop offset="1" stop-color="#FB6FBB"/>
</linearGradient>
</defs>
</svg>
