<svg width="75" height="75" viewBox="0 0 75 75" fill="none" xmlns="http://www.w3.org/2000/svg">
<g id="Featured icon">
<rect x="0.0163765" y="0.0163574" width="74.0327" height="74.0327" rx="15.4235" fill="url(#paint0_linear_150_1071)"/>
<g id="&#240;&#159;&#166;&#134; emoji &#34;open file folder&#34;">
<path id="Vector" d="M43.9949 23.0669H33.9446C33.2129 23.0669 32.4939 22.4917 32.3392 21.7868L31.8082 19.3645C31.6535 18.6556 32.1176 18.0844 32.8492 18.0844H42.8996C43.6312 18.0844 44.3503 18.6596 44.505 19.3645L45.0359 21.7868C45.1906 22.4917 44.7266 23.0669 43.9949 23.0669Z" fill="#946134"/>
<path id="Vector_2" d="M35.0022 23.0669H24.9518C24.2202 23.0669 23.5011 22.4917 23.3464 21.7868L22.8155 19.3645C22.6608 18.6556 23.1248 18.0844 23.8565 18.0844H33.9069C34.6385 18.0844 35.3576 18.6596 35.5122 19.3645L36.0432 21.7868C36.1979 22.4917 35.7338 23.0669 35.0022 23.0669Z" fill="#FF8F00"/>
<path id="Vector_3" d="M13.1082 18.0804C12.5564 18.1411 12.0923 18.6434 12.0965 19.1822C12.0631 33.5139 12.0631 39.0108 12.0631 54.4363C12.0631 55.0115 12.6066 55.5381 13.2002 55.5381H53.0255C53.1886 55.5381 53.3474 55.4976 53.4938 55.4287C53.8742 55.2545 54.1 54.8656 54.1376 54.4606L56.4202 29.058C56.4244 29.0256 56.4244 28.9932 56.4244 28.9608C56.4453 27.1947 56.4328 25.7323 56.4244 24.0836C56.4202 22.8036 55.3374 21.7585 54.0163 21.7585H27.377C26.8376 21.7585 26.361 21.4304 26.1813 20.9402C25.9555 20.3245 25.6378 19.4576 25.3451 18.6718C25.1236 18.0763 24.2164 18.0763 23.9739 18.0804H13.1082Z" fill="url(#paint1_linear_150_1071)"/>
<path id="Vector_4" d="M52.8164 55.6069H13.4133C12.4392 55.6069 11.8623 54.9102 12.1215 54.0474L19.2412 30.569C19.5004 29.7061 20.5038 29.0094 21.4779 29.0094H60.8809C61.855 29.0094 62.432 29.7061 62.1728 30.569L55.053 54.0474C54.7897 54.9102 53.7905 55.6069 52.8164 55.6069Z" fill="url(#paint2_linear_150_1071)"/>
<path id="Vector_5" opacity="0.2" d="M42.8996 19.2958C43.0292 19.2958 43.2424 19.4579 43.2759 19.6158L43.8026 22.018C43.9239 22.581 44.4381 22.9821 45.0276 22.9821H54.0077C54.6307 22.9821 55.1574 23.4925 55.1616 24.096L55.1658 25.0075C55.17 26.2997 55.1783 27.519 55.1616 28.9367V28.961C55.1449 29.2932 55.2703 29.6173 55.5044 29.8563C55.7427 30.0953 56.0688 30.233 56.4116 30.233H60.8766C60.9101 30.233 60.9393 30.237 60.9644 30.237L53.8489 53.7073C53.7527 54.0193 53.2719 54.3919 52.8162 54.3919H13.4132C13.3714 54.3919 13.3379 54.3879 13.317 54.3838V54.3717C13.317 39.1002 13.3212 33.6154 13.3505 19.2958H23.8566H23.8858H42.8996ZM42.8996 18.0806H23.8566H23.8524H13.1038C12.552 18.1414 12.0879 18.6437 12.0921 19.1824C12.0586 33.5141 12.0586 39.0111 12.0586 54.4365C12.0586 54.4689 12.067 54.5054 12.0712 54.5378C12.1172 55.1575 12.6356 55.6072 13.4132 55.6072H52.8162C53.7903 55.6072 54.7895 54.9104 55.0529 54.0476L62.1726 30.5692C62.4318 29.7064 61.8549 29.0096 60.8808 29.0096H56.4158C56.4158 28.9934 56.42 28.9772 56.42 28.961C56.4409 27.1949 56.4283 25.7326 56.42 24.0839C56.4158 22.8038 55.333 21.7587 54.0119 21.7587H45.0318L44.505 19.3566C44.3503 18.6558 43.6312 18.0806 42.8996 18.0806Z" fill="#424242"/>
</g>
</g>
<defs>
<linearGradient id="paint0_linear_150_1071" x1="37.0328" y1="-16.0241" x2="37.0327" y2="103.662" gradientUnits="userSpaceOnUse">
<stop offset="0.0482937" stop-color="#FC41FF"/>
<stop offset="0.837767" stop-color="#CC1BCF" stop-opacity="0"/>
</linearGradient>
<linearGradient id="paint1_linear_150_1071" x1="34.2438" y1="18.1176" x2="34.2438" y2="55.4206" gradientUnits="userSpaceOnUse">
<stop stop-color="#FFC107"/>
<stop offset="0.1894" stop-color="#F1AF06"/>
<stop offset="0.5692" stop-color="#CD7F02"/>
<stop offset="0.7232" stop-color="#BD6A00"/>
</linearGradient>
<linearGradient id="paint2_linear_150_1071" x1="37.1463" y1="28.9049" x2="37.1463" y2="55.5583" gradientUnits="userSpaceOnUse">
<stop stop-color="#FFEE58"/>
<stop offset="0.2852" stop-color="#FFEA54"/>
<stop offset="0.5961" stop-color="#FDDC48"/>
<stop offset="0.9179" stop-color="#FCC733"/>
<stop offset="1" stop-color="#FBC02D"/>
</linearGradient>
</defs>
</svg>
