<svg width="41" height="37" viewBox="0 0 41 37" fill="none" xmlns="http://www.w3.org/2000/svg">
<g id="&#240;&#159;&#166;&#134; icon &#34;collections&#34;">
<g id="Group">
<path id="Vector" d="M7.37396 8.75664C7.37396 7.99305 7.99299 7.37402 8.75658 7.37402H20.7393C21.5029 7.37402 22.1219 7.99305 22.1219 8.75664C22.1219 9.52024 21.5029 10.1393 20.7393 10.1393H8.75658C7.99299 10.1393 7.37396 9.52024 7.37396 8.75664Z" fill="#3054D3"/>
<path id="Vector_2" d="M8.75658 12.9044C7.99299 12.9044 7.37396 13.5234 7.37396 14.287C7.37396 15.0506 7.99299 15.6697 8.75658 15.6697H17.0523C17.8159 15.6697 18.4349 15.0506 18.4349 14.287C18.4349 13.5234 17.8159 12.9044 17.0523 12.9044H8.75658Z" fill="#3054D3"/>
<path id="Vector_3" fill-rule="evenodd" clip-rule="evenodd" d="M0 5.06961C0 2.26975 2.26975 0 5.06961 0H24.4263C26.0006 0 27.4072 0.71758 28.3371 1.84349H29.9568C31.5311 1.84349 32.9377 2.56107 33.8676 3.68699H35.4873C38.2872 3.68699 40.5569 5.95674 40.5569 8.7566V28.1133C40.5569 30.9132 38.2872 33.1829 35.4873 33.1829H33.8676C32.9377 34.3089 31.5311 35.0264 29.9568 35.0264H28.3371C27.4072 36.1524 26.0006 36.8699 24.4263 36.8699H5.06961C2.26975 36.8699 0 34.6002 0 31.8003V5.06961ZM35.0057 30.4177H35.4873C36.76 30.4177 37.7916 29.386 37.7916 28.1133V8.7566C37.7916 7.48392 36.76 6.45223 35.4873 6.45223H35.0057C35.0194 6.60402 35.0264 6.75775 35.0264 6.9131V29.9568C35.0264 30.1122 35.0194 30.2659 35.0057 30.4177ZM29.4959 5.06961C29.4959 4.91426 29.4889 4.76053 29.4753 4.60874H29.9568C31.2295 4.60874 32.2612 5.64043 32.2612 6.9131V29.9568C32.2612 31.2295 31.2295 32.2612 29.9568 32.2612H29.4753C29.4889 32.1094 29.4959 31.9557 29.4959 31.8003V5.06961ZM5.06961 2.76524C3.79693 2.76524 2.76524 3.79693 2.76524 5.06961V31.8003C2.76524 33.073 3.79693 34.1046 5.06961 34.1046H24.4263C25.699 34.1046 26.7307 33.073 26.7307 31.8003V5.06961C26.7307 3.79693 25.699 2.76524 24.4263 2.76524H5.06961Z" fill="#3054D3"/>
</g>
</g>
</svg>
